<svg width="74" height="155" viewBox="0 0 74 155" fill="none" xmlns="http://www.w3.org/2000/svg">
<g filter="url(#filter0_d_21_319)">
<path d="M20.6771 155C11.9852 143.039 5.83611 129.425 2.60917 114.996C-0.617762 100.567 -0.854095 85.6301 1.91475 71.1063C4.6836 56.5826 10.3989 42.7803 18.7081 30.5507C27.0173 18.3211 37.7441 7.92376 50.2269 0L73.4278 36.5498C65.9382 41.3041 59.5021 47.5425 54.5166 54.8802C49.5311 62.218 46.1019 70.4994 44.4406 79.2136C42.7793 87.9278 42.9211 96.89 44.8572 105.547C46.7934 114.205 50.4829 122.373 55.698 129.55L20.6771 155Z" fill="#FE4091"/>
</g>
<defs>
<filter id="filter0_d_21_319" x="-35.0743" y="-31.0658" width="143.576" height="225.149" filterUnits="userSpaceOnUse" color-interpolation-filters="sRGB">
<feFlood flood-opacity="0" result="BackgroundImageFix"/>
<feColorMatrix in="SourceAlpha" type="matrix" values="0 0 0 0 0 0 0 0 0 0 0 0 0 0 0 0 0 0 127 0" result="hardAlpha"/>
<feOffset dy="4"/>
<feGaussianBlur stdDeviation="17.5"/>
<feComposite in2="hardAlpha" operator="out"/>
<feColorMatrix type="matrix" values="0 0 0 0 0.996078 0 0 0 0 0.25098 0 0 0 0 0.568627 0 0 0 0.5 0"/>
<feBlend mode="normal" in2="BackgroundImageFix" result="effect1_dropShadow_21_319"/>
<feBlend mode="normal" in="SourceGraphic" in2="effect1_dropShadow_21_319" result="shape"/>
</filter>
</defs>
</svg>
