<svg width="16" height="16" viewBox="0 0 16 16" fill="none" xmlns="http://www.w3.org/2000/svg">
<path d="M3.66667 1.33337C3.22464 1.33337 2.80072 1.50897 2.48816 1.82153C2.17559 2.13409 2 2.55801 2 3.00004V13C2 13.4421 2.17559 13.866 2.48816 14.1786C2.80072 14.4911 3.22464 14.6667 3.66667 14.6667H8.54C8.25406 14.3693 8.01206 14.0326 7.82133 13.6667H3.66667C3.48986 13.6667 3.32029 13.5965 3.19526 13.4714C3.07024 13.3464 3 13.1769 3 13H7.542C7.43756 12.6756 7.37178 12.3399 7.346 12H3V3.00004C3 2.82323 3.07024 2.65366 3.19526 2.52864C3.32029 2.40361 3.48986 2.33337 3.66667 2.33337H11.3333C11.5101 2.33337 11.6797 2.40361 11.8047 2.52864C11.9298 2.65366 12 2.82323 12 3.00004V7.34604C12.3476 7.37315 12.6809 7.43849 13 7.54204V3.00004C13 2.55801 12.8244 2.13409 12.5118 1.82153C12.1993 1.50897 11.7754 1.33337 11.3333 1.33337H3.66667ZM15.3333 11.6667C15.3333 10.6942 14.947 9.76162 14.2594 9.07398C13.5718 8.38635 12.6391 8.00004 11.6667 8.00004C10.6942 8.00004 9.76157 8.38635 9.07394 9.07398C8.38631 9.76162 8 10.6942 8 11.6667C8 12.6392 8.38631 13.5718 9.07394 14.2594C9.76157 14.9471 10.6942 15.3334 11.6667 15.3334C12.6391 15.3334 13.5718 14.9471 14.2594 14.2594C14.947 13.5718 15.3333 12.6392 15.3333 11.6667ZM11.276 10.0647L13.1467 11.2914C13.2049 11.3287 13.2504 11.3783 13.2833 11.44C13.3167 11.5005 13.3333 11.5667 13.3333 11.6387C13.3334 11.7078 13.3169 11.7759 13.2853 11.8374C13.2548 11.898 13.2094 11.9498 13.1533 11.988L11.282 13.2647C11.2496 13.2869 11.2141 13.3042 11.1767 13.316C11.09 13.3438 10.9962 13.3383 10.9133 13.3007C10.8657 13.2782 10.8222 13.2478 10.7847 13.2107C10.7484 13.1715 10.719 13.1264 10.698 13.0774C10.6769 13.0274 10.6663 12.9736 10.6667 12.9194V10.414C10.6662 10.3338 10.689 10.2551 10.7325 10.1876C10.7759 10.1202 10.8381 10.0668 10.9113 10.034C10.9694 10.0067 11.0337 9.99504 11.0977 10.0003C11.1617 10.0056 11.2232 10.0275 11.276 10.064M4 4.00004C4 3.82323 4.07024 3.65366 4.19526 3.52864C4.32029 3.40361 4.48986 3.33337 4.66667 3.33337H10C10.1768 3.33337 10.3464 3.40361 10.4714 3.52864C10.5964 3.65366 10.6667 3.82323 10.6667 4.00004V5.33337C10.6667 5.51019 10.5964 5.67975 10.4714 5.80478C10.3464 5.9298 10.1768 6.00004 10 6.00004H4.66667C4.48986 6.00004 4.32029 5.9298 4.19526 5.80478C4.07024 5.67975 4 5.51019 4 5.33337V4.00004ZM5 5.00004H9.66667V4.33337H5V5.00004Z" fill="#4ECB71"/>
</svg>
