<svg width="18" height="18" viewBox="0 0 18 18" fill="none" xmlns="http://www.w3.org/2000/svg">
<path d="M10.8157 5.71798C10.446 5.62764 10.0617 5.61431 9.6866 5.67882C9.31152 5.74334 8.95373 5.88431 8.63546 6.09298C8.61197 6.10857 8.59218 6.1291 8.57745 6.15313C8.56273 6.17717 8.55344 6.20413 8.55022 6.23213C8.54701 6.26014 8.54995 6.2885 8.55884 6.31525C8.56774 6.342 8.58236 6.36648 8.60171 6.38698C8.64246 6.43256 8.69803 6.46223 8.75857 6.47074C8.81912 6.47926 8.88072 6.46605 8.93246 6.43348C9.19409 6.26185 9.48826 6.14591 9.79664 6.09288C10.105 6.03985 10.421 6.05086 10.725 6.12523C11.2588 6.2169 11.735 6.51567 12.0497 6.95655C12.3645 7.39743 12.4924 7.94476 12.4057 8.47948L12.3855 8.56873C12.3612 8.67481 12.3281 8.77868 12.2865 8.87923C12.265 8.93823 12.2661 9.00308 12.2895 9.06134C12.3129 9.1196 12.3569 9.16718 12.4132 9.19498C12.4388 9.20983 12.4672 9.21917 12.4966 9.22242C12.526 9.22568 12.5558 9.22276 12.584 9.21387C12.6123 9.20498 12.6383 9.19031 12.6606 9.17078C12.6828 9.15126 12.7007 9.12732 12.7132 9.10048C12.7798 8.94496 12.8286 8.78244 12.8587 8.61598L12.8655 8.58673C12.9708 7.93493 12.8146 7.2679 12.4307 6.73068C12.0469 6.19346 11.4665 5.82951 10.8157 5.71798ZM13.0657 15.5355H12.375L13.1722 14.6662C13.2598 14.5562 13.3081 14.42 13.3093 14.2793C13.3106 14.1386 13.2647 14.0015 13.179 13.89C13.0871 13.7753 12.97 13.6834 12.8368 13.6214C12.7036 13.5595 12.5578 13.5292 12.411 13.533C12.1807 13.5103 11.9507 13.5783 11.7699 13.7225C11.5891 13.8668 11.4717 14.076 11.4427 14.3055C11.4588 14.3767 11.4986 14.4404 11.5556 14.486C11.6127 14.5316 11.6835 14.5565 11.7566 14.5565C11.8296 14.5565 11.9005 14.5316 11.9575 14.486C12.0146 14.4404 12.0544 14.3767 12.0705 14.3055C12.0813 14.2241 12.1236 14.1502 12.1881 14.0994C12.2527 14.0487 12.3346 14.0252 12.4162 14.034C12.4589 14.0333 12.5011 14.0427 12.5394 14.0615C12.5778 14.0802 12.6111 14.1078 12.6367 14.142C12.6634 14.1766 12.679 14.2184 12.6815 14.262C12.6841 14.3056 12.6734 14.349 12.651 14.3865L11.5027 15.6382C11.4694 15.6723 11.4486 15.7167 11.4438 15.7641C11.439 15.8116 11.4506 15.8592 11.4765 15.8992C11.5083 15.9432 11.5504 15.9787 11.5992 16.0025C11.648 16.0263 11.7019 16.0378 11.7562 16.0357H13.065C13.1025 16.0443 13.1415 16.0442 13.179 16.0356C13.2166 16.027 13.2517 16.0101 13.2818 15.9861C13.3119 15.962 13.3362 15.9315 13.3529 15.8968C13.3696 15.8621 13.3783 15.8241 13.3783 15.7856C13.3783 15.7471 13.3696 15.7091 13.3529 15.6744C13.3362 15.6397 13.3119 15.6092 13.2818 15.5851C13.2517 15.5611 13.2166 15.5442 13.179 15.5356C13.1415 15.527 13.1033 15.5269 13.0657 15.5355ZM6.64796 14.25C6.46679 14.3197 6.27431 14.3553 6.08021 14.355C5.77489 14.3854 5.46977 14.2954 5.22982 14.1042C4.98986 13.9129 4.83401 13.6356 4.79546 13.3312C4.83401 13.0268 4.98986 12.7495 5.22982 12.5583C5.46977 12.3671 5.77489 12.2771 6.08021 12.3075C6.27215 12.3072 6.46253 12.342 6.64196 12.4102C6.71469 12.4406 6.79551 12.4458 6.87151 12.4248C6.94751 12.4039 7.0143 12.3581 7.06121 12.2947C7.07823 12.2639 7.08796 12.2296 7.08966 12.1945C7.09136 12.1593 7.08497 12.1242 7.07099 12.0919C7.05701 12.0596 7.03581 12.031 7.00902 12.0081C6.98223 11.9853 6.95057 11.9689 6.91646 11.9602C6.64928 11.8593 6.3658 11.8084 6.08021 11.8102C5.62581 11.7656 5.1719 11.8998 4.81482 12.1843C4.45774 12.4688 4.22561 12.8813 4.16771 13.3342C4.22544 13.7873 4.45749 14.2 4.81459 14.4846C5.17168 14.7693 5.6257 14.9036 6.08021 14.859C6.36955 14.8596 6.65646 14.8062 6.92621 14.7015C6.96031 14.6927 6.99194 14.6762 7.01864 14.6532C7.04534 14.6302 7.06639 14.6014 7.08017 14.569C7.09395 14.5366 7.10008 14.5015 7.09809 14.4663C7.0961 14.4311 7.08605 14.3969 7.06871 14.3662C7.02183 14.3024 6.95482 14.2562 6.87849 14.2351C6.80216 14.2141 6.72095 14.2193 6.64796 14.25ZM9.16121 11.805C8.70682 11.7599 8.25279 11.894 7.89575 12.1786C7.5387 12.4633 7.30682 12.876 7.24946 13.329C7.30719 13.7819 7.53913 14.1944 7.89607 14.4791C8.253 14.7638 8.70682 14.8982 9.16121 14.8537C9.61572 14.8984 10.0697 14.7641 10.4268 14.4794C10.7839 14.1947 11.016 13.782 11.0737 13.329C11.0158 12.8761 10.7837 12.4636 10.4266 12.179C10.0695 11.8945 9.6156 11.7603 9.16121 11.805ZM9.16121 14.355C8.8553 14.3857 8.5495 14.2956 8.30915 14.1039C8.0688 13.9122 7.91297 13.6341 7.87496 13.329C7.91351 13.0247 8.06925 12.7475 8.30904 12.5563C8.54884 12.3652 8.85376 12.2751 9.15896 12.3052C9.46427 12.2749 9.76939 12.3648 10.0093 12.5561C10.2493 12.7473 10.4052 13.0246 10.4437 13.329C10.4051 13.6329 10.2496 13.9099 10.0102 14.1011C9.7707 14.2922 9.46616 14.3825 9.16121 14.3527V14.355ZM6.14096 11.121C6.20492 11.1175 6.26512 11.0896 6.30916 11.0431C6.35321 10.9966 6.37775 10.9349 6.37775 10.8709C6.37775 10.8068 6.35321 10.7452 6.30916 10.6986C6.26512 10.6521 6.20492 10.6242 6.14096 10.6207H4.29446C3.75513 10.6213 3.23286 10.4318 2.81946 10.0854C2.40605 9.73909 2.12797 9.25809 2.03411 8.72699C1.94026 8.1959 2.03662 7.64872 2.30627 7.18165C2.57592 6.71458 3.0016 6.35751 3.50846 6.17323C3.56824 6.15069 3.61711 6.10609 3.64501 6.04861C3.67291 5.99113 3.67772 5.92515 3.65846 5.86423C3.53308 5.48731 3.48423 5.08916 3.51478 4.69311C3.54532 4.29707 3.65465 3.91111 3.83634 3.55787C4.01803 3.20464 4.26843 2.89125 4.57285 2.63607C4.87727 2.3809 5.22958 2.18908 5.60911 2.07187C5.98865 1.95467 6.38777 1.91443 6.78306 1.95352C7.17836 1.99261 7.56186 2.11025 7.91109 2.29953C8.26032 2.4888 8.56823 2.74591 8.81677 3.05577C9.06531 3.36563 9.24947 3.722 9.35846 4.10398C9.37271 4.14833 9.39885 4.18792 9.43402 4.21846C9.46919 4.249 9.51205 4.26933 9.55796 4.27723C9.60388 4.28492 9.65105 4.2795 9.69403 4.26159C9.73702 4.24368 9.77408 4.21401 9.80096 4.17598C10.0331 3.85346 10.3384 3.59059 10.6919 3.40898C11.0453 3.22736 11.4368 3.13217 11.8342 3.13123H11.8507C12.1855 3.13047 12.517 3.19829 12.8246 3.3305C13.1323 3.46271 13.4096 3.65652 13.6395 3.89998C13.8742 4.14319 14.0571 4.43152 14.1771 4.74749C14.2971 5.06347 14.3518 5.40052 14.3377 5.73823C14.3363 5.80351 14.3604 5.86675 14.405 5.9145C14.4495 5.96224 14.5109 5.99071 14.5761 5.99384C14.6414 5.99697 14.7052 5.97451 14.7541 5.93125C14.803 5.88799 14.8331 5.82734 14.838 5.76223C14.8552 5.35659 14.7899 4.95168 14.646 4.57201C14.5021 4.19235 14.2827 3.84585 14.001 3.55348C13.725 3.26189 13.3926 3.02958 13.024 2.87072C12.6553 2.71186 12.2581 2.62977 11.8567 2.62948C11.4521 2.62856 11.0515 2.70887 10.6785 2.86566C10.3056 3.02245 9.96786 3.25252 9.68546 3.54223C9.35619 2.81741 8.78865 2.22719 8.07728 1.86978C7.3659 1.51238 6.55359 1.40935 5.77552 1.57783C4.99744 1.74632 4.30052 2.17616 3.80072 2.79582C3.30092 3.41549 3.02838 4.18762 3.02846 4.98373C3.02869 5.25573 3.0604 5.52678 3.12296 5.79148C2.54448 6.05813 2.07453 6.5145 1.79103 7.0849C1.50753 7.65531 1.42752 8.30549 1.56427 8.92761C1.70103 9.54973 2.04632 10.1064 2.54289 10.5054C3.03946 10.9043 3.65748 11.1215 4.29446 11.121H6.14096ZM15.4777 6.16648C15.426 6.12789 15.3613 6.11076 15.2973 6.11866C15.2332 6.12655 15.1747 6.15887 15.1339 6.20887C15.0931 6.25887 15.0731 6.3227 15.0782 6.38704C15.0833 6.45138 15.113 6.51127 15.1612 6.55423C15.5265 6.854 15.7903 7.25931 15.9165 7.71472C16.0428 8.17013 16.0252 8.65341 15.8663 9.09847C15.7074 9.54352 15.4149 9.92863 15.0287 10.2011C14.6426 10.4736 14.1818 10.6201 13.7092 10.6207H7.16621C7.10224 10.6242 7.04204 10.6521 6.998 10.6986C6.95395 10.7452 6.92941 10.8068 6.92941 10.8709C6.92941 10.9349 6.95395 10.9966 6.998 11.0431C7.04204 11.0896 7.10224 11.1175 7.16621 11.121H13.7092C14.2851 11.1205 14.8467 10.942 15.3173 10.61C15.7879 10.2781 16.1443 9.80878 16.3379 9.26642C16.5315 8.72405 16.5528 8.13511 16.3988 7.5802C16.2448 7.02529 15.9231 6.53153 15.4777 6.16648Z" fill="#0FA958"/>
</svg>
