<svg width="24" height="24" viewBox="0 0 24 24" fill="none" xmlns="http://www.w3.org/2000/svg">
<path d="M21 5L3.00004 5C2.81779 5.00057 2.63916 5.05083 2.48336 5.14538C2.32756 5.23992 2.20049 5.37516 2.11584 5.53655C2.03119 5.69794 1.99215 5.87936 2.00293 6.06128C2.01372 6.24321 2.07391 6.41874 2.17704 6.569L11.177 19.569C11.55 20.108 12.448 20.108 12.822 19.569L21.822 6.569C21.9262 6.41906 21.9873 6.24343 21.9987 6.0612C22.01 5.87898 21.9713 5.69712 21.8865 5.53539C21.8018 5.37366 21.6744 5.23825 21.5181 5.14386C21.3618 5.04947 21.1826 4.99971 21 5Z" fill="black"/>
</svg>
