<svg width="207" height="187" viewBox="0 0 207 187" fill="none" xmlns="http://www.w3.org/2000/svg">
<path d="M155.172 179.388C172.23 167.444 185.07 150.405 191.849 130.715C198.629 111.025 199.002 89.6945 192.913 69.7799C186.824 49.8652 174.588 32.3893 157.956 19.8567C141.325 7.32418 121.153 0.378454 100.332 0.0150186C79.5105 -0.348417 59.1085 5.8891 42.05 17.8336C24.9915 29.7781 12.1523 46.8163 5.37245 66.5064C-1.40736 86.1964 -1.77969 107.527 4.30884 127.442C10.3974 147.357 22.6342 164.833 39.2654 177.365L45.2 169.49C30.2318 158.21 19.2187 142.482 13.739 124.559C8.25938 106.636 8.59447 87.4378 14.6963 69.7168C20.7981 51.9958 32.3534 36.6614 47.7061 25.9113C63.0587 15.1613 81.4205 9.54752 100.16 9.87461C118.899 10.2017 137.054 16.4529 152.022 27.7322C166.99 39.0114 178.003 54.7398 183.483 72.663C188.962 90.5861 188.627 109.784 182.526 127.505C176.424 145.226 164.868 160.56 149.516 171.311L155.172 179.388Z" fill="#E9EDF0"/>
<path d="M160.502 187C175.002 176.847 186.781 163.283 194.802 147.503C202.822 131.723 206.838 114.213 206.494 96.5147C206.15 78.8169 201.457 61.4754 192.83 46.0191C184.202 30.5628 171.905 17.4663 157.021 7.88425L141.292 32.316C152.167 39.3177 161.153 48.8874 167.458 60.1815C173.762 71.4756 177.191 84.1472 177.442 97.0792C177.693 110.011 174.759 122.806 168.898 134.337C163.038 145.867 154.43 155.779 143.835 163.198L160.502 187Z" fill="#3A5AFE"/>
<circle opacity="0.9" cx="98.6109" cy="98.6108" r="30.4814" fill="#ECEAF8"/>
<path d="M114.136 102.005L110.382 108.508C109.646 109.799 108.279 110.475 106.898 110.385H103.894V113.388L100.14 106.631L103.894 99.8729V102.876H108.129L104.795 97.0947L111.298 93.3404L114.001 98.0258C114.782 99.1821 114.887 100.729 114.136 102.005ZM95.1991 83.444H102.708C104.179 83.444 105.456 84.3 106.072 85.5314L107.573 88.1444L110.171 86.6427L106.207 93.2653L98.4728 93.4004L101.071 91.8987L98.9534 88.2195L95.6346 94.0011L89.1171 90.2468L91.8202 85.5614C92.4359 84.315 93.7124 83.444 95.1991 83.444ZM88.9519 108.523L85.1976 102.02C84.4617 100.744 84.5669 99.2121 85.3327 98.0558L86.8345 95.4578L84.2365 93.9561L91.9553 94.0762L95.9349 100.714L93.3369 99.2121L91.2195 102.876H97.8872V110.385H92.481C91.7774 110.436 91.0737 110.288 90.4498 109.959C89.8259 109.63 89.307 109.132 88.9519 108.523Z" fill="#4ECB71"/>
</svg>
