<svg width="18" height="18" viewBox="0 0 18 18" fill="none" xmlns="http://www.w3.org/2000/svg">
<path d="M16.365 11.565L14.49 14.8125C14.1225 15.4575 13.44 15.795 12.75 15.75H11.25V17.25L9.375 13.875L11.25 10.5V12H13.365L11.7 9.11254L14.9475 7.23754L16.2975 9.57754C16.6875 10.155 16.74 10.9275 16.365 11.565ZM6.9075 2.29504H10.6575C11.3925 2.29504 12.03 2.72254 12.3375 3.33754L13.0875 4.64254L14.385 3.89254L12.405 7.20004L8.5425 7.26754L9.84 6.51754L8.7825 4.68004L7.125 7.56754L3.87 5.69254L5.22 3.35254C5.5275 2.73004 6.165 2.29504 6.9075 2.29504ZM3.7875 14.82L1.9125 11.5725C1.545 10.935 1.5975 10.17 1.98 9.59254L2.73 8.29504L1.4325 7.54504L5.2875 7.60504L7.27499 10.92L5.9775 10.17L4.92 12H8.25V15.75H5.55C5.19862 15.7755 4.84717 15.7018 4.53559 15.5374C4.22402 15.373 3.96483 15.1244 3.7875 14.82Z" fill="#4ECB71"/>
</svg>
