<svg width="267" height="191" viewBox="0 0 267 191" fill="none" xmlns="http://www.w3.org/2000/svg">
<path d="M263.18 116.756C257.245 103.967 244.071 97.5906 234.796 87.4568C224.147 75.8176 219.006 59.6735 212.578 44.7853C206.149 29.9025 196.989 14.7708 182.769 9.55009C170.159 4.91764 156.432 9.1365 143.218 7.76414C122.569 5.62835 104.461 -7.03927 84.929 5.38945C60.8349 20.7229 40.83 43.2162 25.9662 68.9485C19.7486 79.7082 12.168 93.4831 7.34426 107.862C2.20368 123.19 0.196707 139.202 6.31292 152.982C16.1115 175.047 35.5781 178.354 55.2761 173.849C77.8863 168.676 101.286 166.996 124.284 170.78C141.839 173.67 159.132 179.417 176.509 182.409C168.98 183.267 164.338 184.436 164.338 185.726C164.338 188.359 183.677 190.495 207.534 190.495C231.391 190.495 250.731 188.359 250.731 185.726C250.731 183.551 237.545 181.718 219.524 181.144C221.526 180.549 223.533 179.865 225.545 179.075C230.606 177.087 235.937 174.458 241.028 171.246C242.2 170.504 243.357 169.736 244.494 168.935C244.494 168.93 244.494 168.93 244.499 168.93C244.559 168.893 244.619 168.851 244.675 168.808C245.017 168.569 245.354 168.326 245.691 168.077C246.717 167.329 247.729 166.555 248.714 165.755C249.358 165.236 249.987 164.706 250.611 164.16C250.963 163.858 251.31 163.551 251.657 163.232C252.266 162.686 252.859 162.124 253.443 161.552C253.78 161.229 254.107 160.895 254.434 160.561C255.49 159.486 256.496 158.372 257.447 157.222C257.859 156.73 258.262 156.231 258.649 155.728C261.426 152.124 263.659 148.212 265.118 144.014C267.924 135.926 267.838 126.784 263.18 116.756Z" fill="url(#paint0_linear_2_56)"/>
<path d="M65.7792 183.749C75.9865 183.749 84.261 182.469 84.261 180.889C84.261 179.309 75.9865 178.029 65.7792 178.029C55.572 178.029 47.2974 179.309 47.2974 180.889C47.2974 182.469 55.572 183.749 65.7792 183.749Z" fill="url(#paint1_linear_2_56)"/>
<path d="M121.023 182.957C135.592 182.957 147.403 181.024 147.403 178.639C147.403 176.254 135.592 174.32 121.023 174.32C106.453 174.32 94.6423 176.254 94.6423 178.639C94.6423 181.024 106.453 182.957 121.023 182.957Z" fill="url(#paint2_linear_2_56)"/>
<path d="M94.3664 15.5632H80.0917V22.6042H94.3664V15.5632Z" fill="#C1BED7"/>
<path d="M102.881 25.1458H88.6066V32.1869H102.881V25.1458Z" fill="#C1BED7"/>
<path d="M72.7879 32.4088C66.462 32.4088 61.3153 37.8318 61.3153 44.4973C61.3153 51.1629 66.462 56.5858 72.7879 56.5858C79.1148 56.5858 84.2614 51.1629 84.2614 44.4973C84.2614 37.8318 79.1143 32.4088 72.7879 32.4088ZM73.6822 34.4891C74.9233 35.0242 76.0081 36.6396 76.7057 38.8469C75.7523 39.0446 74.7279 39.167 73.6822 39.2106V34.4891ZM71.8937 39.2106C70.8506 39.1665 69.8267 39.0441 68.871 38.846C69.5682 36.6392 70.653 35.0242 71.8937 34.4891V39.2106ZM71.8937 41.0969V43.5546H68.0747C68.1199 42.5486 68.2366 41.5807 68.4128 40.6732C69.5103 40.9094 70.677 41.0501 71.8937 41.0969ZM71.8937 45.4396V47.9023C70.69 47.9491 69.5081 48.0894 68.4137 48.3255C68.237 47.4167 68.1199 46.4474 68.0747 45.4396H71.8937ZM71.8937 49.7864V54.505C70.6535 53.9699 69.5695 52.3569 68.8719 50.1518C69.8267 49.9533 70.8497 49.8304 71.8937 49.7864ZM73.6822 49.7864C74.724 49.8304 75.7466 49.9533 76.7044 50.1514C76.0068 52.3564 74.9224 53.9699 73.6822 54.5046V49.7864ZM73.6822 47.9023V45.4396H77.5021C77.4568 46.447 77.3402 47.4163 77.1631 48.3251C76.0652 48.0889 74.8833 47.9491 73.6822 47.9023ZM73.6822 43.5546V41.0969C74.9015 41.0501 76.0699 40.9094 77.1639 40.6737C77.3402 41.5811 77.4568 42.5486 77.5021 43.5546H73.6822ZM66.2879 43.5546H63.1495C63.2849 42.0052 63.7553 40.5604 64.4759 39.2885C65.1286 39.6452 65.8688 39.9557 66.6778 40.2147C66.4689 41.2638 66.3349 42.3822 66.2879 43.5546ZM66.2879 45.4396C66.3349 46.6139 66.4694 47.7336 66.6783 48.7836C65.8689 49.0427 65.1286 49.3526 64.4768 49.708C63.7553 48.4356 63.2844 46.9899 63.1491 45.4396H66.2879ZM79.2888 45.4396H82.4272C82.2919 46.9894 81.8211 48.4347 81.1 49.7066C80.4472 49.3503 79.707 49.0408 78.8985 48.7822C79.1074 47.7327 79.2418 46.6134 79.2888 45.4396ZM79.2888 43.5546C79.2418 42.3822 79.1078 41.2638 78.8994 40.2156C79.7092 39.9561 80.4494 39.6461 81.1017 39.2899C81.8219 40.5614 82.2923 42.0057 82.4277 43.5546H79.2888ZM80.0343 37.7511C79.5578 37.9923 79.019 38.2041 78.4403 38.3925C78.0861 37.2513 77.6348 36.2352 77.1048 35.3768C78.2223 35.966 79.2144 36.7744 80.0343 37.7511ZM68.4716 35.3764C67.9415 36.2347 67.4903 37.2508 67.136 38.3921C66.5582 38.2041 66.0194 37.9918 65.5425 37.7502C66.3623 36.7735 67.3545 35.9656 68.4716 35.3764ZM65.5442 51.2459C66.0203 51.0051 66.559 50.7938 67.1373 50.6058C67.4911 51.7456 67.942 52.7604 68.4716 53.6178C67.3554 53.0291 66.3641 52.2216 65.5442 51.2459ZM77.1052 53.6173C77.6348 52.7599 78.0856 51.7447 78.4398 50.6044C79.0177 50.7919 79.5565 51.0038 80.033 51.2445C79.2131 52.2211 78.2214 53.0286 77.1052 53.6173Z" fill="white"/>
<path d="M33.7211 151.937H47.9957V144.896H33.7211V151.937Z" fill="#DFDEEE"/>
<path d="M16.6921 151.937H30.9667V144.896H16.6921V151.937Z" fill="#DFDEEE"/>
<path d="M25.2066 161.52H39.4812V154.479H25.2066V161.52Z" fill="#DFDEEE"/>
<path d="M206.48 145.281L199.893 145.71L204.758 147.183C203.031 148.992 201.639 150.372 199.572 152.255L189.979 151.396L197.293 154.33C194.91 156.387 193.667 157.494 191.053 159.207C186.844 158.005 182.3 156.979 182.3 156.979L187.92 161.239C184.737 163.14 181.475 164.605 178.267 165.296C177.749 165.405 178.245 165.313 177.749 165.405L171.868 163.356L174.369 166.004C160.826 167.932 157.106 162.668 157.106 162.668C157.106 162.668 157.128 162.397 157.24 161.875C157.329 161.483 157.467 160.939 157.699 160.272C158.579 157.651 160.77 153.054 166.155 147.269L166.512 152.142L168.341 145.856C168.834 145.471 169.341 145.08 169.876 144.695C171.582 143.44 171.249 143.405 173.328 142.518L173.761 149.313L176.307 141.194C177.54 140.694 178.821 140.251 180.13 139.859L179.136 146.355L183.18 139.123C185.662 138.452 186.563 138.289 189.118 137.909L188.016 144.657L192.505 137.554C196.352 137.067 196.196 137.129 199.516 137.06L197.888 142.687L202.163 136.811C207.711 136.801 213.321 137.238 213.321 137.238C213.321 137.238 211.05 140.368 206.48 145.281Z" fill="#0797A7"/>
<path d="M191.963 117.042L187.747 120.639L191.671 119.181C191.334 121.26 191.026 122.884 190.494 125.184L183.68 129.429L189.906 127.718C189.241 130.293 188.91 131.66 187.934 134.12C184.571 135.43 181.063 137.026 181.063 137.026L186.755 137.055C185.483 139.928 183.962 142.548 182.127 144.623C181.829 144.956 182.12 144.645 181.829 144.956L176.964 146.539L179.836 147.056C171.639 155.152 166.765 153.497 166.765 153.497C166.765 153.497 166.657 153.304 166.497 152.898C166.379 152.591 166.225 152.158 166.078 151.594C165.482 149.396 164.869 145.217 165.857 138.637L168.301 141.721L166.681 136.593C166.838 136.087 166.999 135.57 167.183 135.044C167.758 133.346 167.519 133.49 168.51 131.851L171.876 136.184L169.906 129.467C170.505 128.512 171.163 127.572 171.862 126.652L174.136 131.502L173.572 124.626C174.931 122.93 175.46 122.367 176.999 120.829L179.314 125.903L179.106 118.889C181.462 116.63 181.386 116.75 183.579 115.036L185.035 119.623L185.238 113.54C188.95 110.745 192.905 108.219 192.905 108.219C192.905 108.219 192.801 111.455 191.963 117.042Z" fill="#0CC3BE"/>
<path d="M3.25719 113.482L9.14277 116.625L4.12273 115.947C5.02744 118.329 5.78636 120.177 6.9761 122.769L16.1071 125.985L8.28855 125.624C9.70283 128.508 10.4278 130.044 12.1841 132.708C16.5009 133.362 21.0584 134.317 21.0584 134.317L14.296 135.881C16.504 138.956 18.9479 141.662 21.6337 143.637C22.068 143.953 21.6467 143.662 22.068 143.953L28.2377 144.527L24.9466 145.914C36.6555 153.339 42.0511 150.06 42.0511 150.06C42.0511 150.06 42.1325 149.801 42.2256 149.275C42.2913 148.879 42.3692 148.322 42.4075 147.612C42.5842 144.838 42.3013 139.703 39.5332 132.144L37.3727 136.468L38.0576 129.933C37.7495 129.374 37.4314 128.803 37.085 128.226C35.9906 126.362 36.3091 126.469 34.7343 124.787L31.7808 130.845L32.4967 122.327C31.5528 121.353 30.5432 120.412 29.4888 119.505L27.9588 125.885L26.9653 117.556C24.9388 115.904 24.1724 115.378 21.9701 113.962L20.4444 120.618L18.9936 112.222C15.6445 110.169 15.7642 110.291 12.742 108.842L12.121 114.688L10.4056 107.508C5.31508 105.182 0 103.242 0 103.242C0 103.242 0.908185 107.063 3.25719 113.482Z" fill="#0797A7"/>
<path d="M10.769 70.6483C12.5331 73.1509 13.3582 76.5623 12.9705 79.6225C13.1319 80.1516 13.3164 80.7573 13.5244 81.4378C14.6184 78.6211 16.5362 76.1996 18.8343 74.3866C18.1537 77.4445 16.1885 80.3309 13.6933 81.988C14.0379 83.1086 14.4374 84.3934 14.8965 85.8254C15.1093 86.4843 15.3325 87.1743 15.5649 87.8933C15.6776 88.2331 15.7964 88.5783 15.9169 88.9286C17.8182 84.961 21.0023 81.8005 24.6837 79.6844C23.2368 83.889 19.8935 87.5324 16.0027 89.179C16.1084 89.4862 16.2155 89.7948 16.3234 90.1116C16.8347 91.6527 17.4374 93.2566 18.0497 94.9582C18.3356 95.7198 18.6324 96.4975 18.9374 97.2843C20.8251 92.352 24.286 88.2299 28.4622 85.2614C27.2695 90.5651 23.7238 95.4144 19.2137 97.9923C19.9313 99.8264 20.6985 101.716 21.5136 103.633C21.5375 103.65 21.5627 103.664 21.5862 103.681C21.5701 103.684 21.5536 103.687 21.5375 103.69C21.8177 104.348 22.101 105.009 22.3922 105.671C22.4213 105.736 22.45 105.8 22.4792 105.865C24.3726 100.172 28.6555 95.2003 33.8169 92.8087C31.6981 98.5494 27.6872 103.286 22.8347 106.657C24.3243 109.955 25.813 112.992 27.2142 115.705C27.333 115.926 27.4488 116.143 27.5654 116.363C28.7207 109.066 33.038 102.131 38.9088 98.2591C37.3122 105.578 33.2073 112.016 27.8591 116.913C28.4057 117.941 28.9322 118.931 29.4509 119.829C29.8078 120.459 30.1481 121.082 30.4818 121.661C30.8191 122.232 31.1429 122.779 31.4518 123.302C31.4605 123.316 31.4688 123.33 31.4775 123.344C33.3735 116.59 38.1768 110.553 44.1229 107.556C41.8718 114.283 37.37 119.909 31.8496 123.965C34.1024 127.716 35.5471 129.841 35.5006 130.077C35.4736 130.233 34.32 128.929 32.4679 126.254C27.4775 128.809 21.7586 129.373 16.3134 128.386C20.8891 125.267 26.9405 124.299 32.1555 125.799C31.8626 125.37 31.5541 124.909 31.2312 124.416C31.2177 124.426 31.2042 124.437 31.1907 124.446C31.1955 124.424 31.2025 124.403 31.2077 124.381C31.1894 124.354 31.1724 124.328 31.1542 124.3C30.83 123.796 30.4901 123.267 30.1363 122.717C29.786 122.154 29.4292 121.544 29.0558 120.923C28.9214 120.704 28.7856 120.473 28.6502 120.243C21.9574 122.4 14.7246 121.973 8.09489 119.689C14.2699 116.717 21.8569 116.599 28.1002 119.291C27.652 118.501 27.1946 117.672 26.7199 116.82C26.1224 115.706 25.5105 114.532 24.8913 113.301C17.8586 114.17 10.7411 112.325 4.56659 108.735C11.215 107.018 18.7616 108.431 24.4335 112.381C23.5362 110.568 22.6276 108.644 21.7268 106.616C21.3238 105.699 20.9331 104.783 20.5532 103.873C14.8499 104.808 8.9848 103.611 3.79287 100.988C9.0962 99.2743 15.2298 99.9699 20.0867 102.74C19.2089 100.593 18.3987 98.4856 17.6576 96.4617C12.5427 96.166 7.42169 93.4827 4.22542 89.3652C9.01569 89.8695 13.4913 92.0544 17.2133 95.2265C16.6476 93.5932 16.0997 92.0406 15.6389 90.55C15.3873 89.7563 15.138 88.9942 14.9126 88.2542C14.8212 87.9419 14.732 87.6379 14.6437 87.3362C11.3473 87.7237 8.00916 86.272 5.90167 83.491C9.0331 83.3237 11.9748 84.5232 14.4226 86.5806C14.3773 86.426 14.3308 86.2669 14.2864 86.1156C13.876 84.6864 13.5279 83.4007 13.2372 82.2746C13.2324 82.2773 13.2276 82.281 13.2224 82.2837C13.2255 82.2741 13.2289 82.2649 13.232 82.2558C13.1863 82.0788 13.1415 81.9041 13.0988 81.7353C10.2189 80.9398 7.52744 78.8595 6.03135 76.2344C8.67583 77.0726 11.0222 78.7563 12.8856 80.8802C12.7925 80.5005 12.7107 80.1534 12.6349 79.8279C11.1632 77.0492 10.5923 73.8011 10.769 70.6483Z" fill="#0CC3BE"/>
<path d="M34.0811 39.3697C36.2343 41.5073 39.3544 42.7682 42.2839 42.7192C42.7639 42.9498 43.3135 43.213 43.9301 43.5101C41.1477 44.3267 38.6416 46.0517 36.6655 48.2453C39.6268 47.889 42.5763 46.1691 44.4293 43.7508C45.4454 44.2419 46.6099 44.8096 47.9062 45.457C48.5024 45.7564 49.1269 46.0705 49.7779 46.3974C50.0851 46.5552 50.3967 46.7193 50.7126 46.8862C46.7513 48.414 43.4014 51.3779 40.978 54.9837C45.1099 53.9594 48.9332 50.885 50.9389 47.0054C51.2161 47.1522 51.4946 47.2998 51.7809 47.4493C53.1739 48.1637 54.6156 48.9817 56.1482 49.8208C56.8327 50.2087 57.5312 50.6099 58.2374 51.0207C53.3684 52.4215 49.0799 55.5633 45.7952 59.5878C50.9332 58.9573 55.9171 55.8114 58.8728 51.3921C60.5177 52.3564 62.21 53.3798 63.922 54.456C63.9346 54.483 63.9455 54.511 63.9585 54.5376C63.9637 54.5211 63.9677 54.5041 63.9729 54.4876C64.5608 54.8572 65.1496 55.2309 65.7405 55.6128C65.7984 55.6509 65.8549 55.6885 65.9128 55.7265C60.3262 57.0453 55.1412 60.9477 52.2857 66.0708C57.9437 64.5224 62.8754 60.8767 66.6178 56.191C69.553 58.1338 72.2431 60.0458 74.6361 61.8281C74.8306 61.978 75.0225 62.1243 75.2153 62.2719C68.2027 62.631 61.163 66.3413 56.8301 72.0339C63.915 71.2154 70.4611 67.6697 75.7001 62.6434C76.6056 63.3353 77.4777 64.0015 78.2636 64.6489C78.8163 65.0955 79.3637 65.5243 79.8707 65.9415C80.3689 66.3611 80.8472 66.7632 81.3041 67.1474C81.3167 67.1584 81.3285 67.1685 81.3415 67.1791C74.7536 68.3763 68.5038 72.7001 64.9868 78.5734C71.59 77.0011 77.4172 72.9454 81.8837 67.6403C85.1566 70.435 86.9917 72.1944 87.2197 72.1733C87.3698 72.1632 86.275 70.8037 83.9695 68.5542C86.9586 63.6292 88.1562 57.7101 87.8603 51.8965C84.3868 56.3217 82.7697 62.5416 83.5765 68.1741C83.2058 67.8173 82.8072 67.4409 82.3807 67.0456C82.3916 67.0323 82.4024 67.02 82.4133 67.0067C82.392 67.0094 82.3711 67.014 82.3498 67.0167C82.3259 66.9943 82.3037 66.9736 82.2797 66.9512C81.842 66.5532 81.3833 66.1359 80.9059 65.7012C80.4159 65.2693 79.8829 64.8246 79.3411 64.3619C79.1505 64.1955 78.9481 64.0267 78.7467 63.858C81.56 57.1053 82.0004 49.486 80.6187 42.2822C77.0983 48.398 76.1035 56.3245 77.9137 63.1716C77.221 62.6103 76.4929 62.0354 75.7449 61.4388C74.7653 60.6841 73.7292 59.9069 72.6413 59.1155C74.2793 51.8571 73.3693 44.1933 70.7044 37.3132C68.3119 44.0709 68.7649 52.1331 71.8267 58.5286C70.2222 57.3786 68.5147 56.2034 66.7083 55.0245C65.8906 54.4959 65.0734 53.9805 64.2596 53.477C65.8053 47.6176 65.3597 41.3399 63.4929 35.6011C61.2596 40.9511 61.2009 47.4511 63.2466 52.8566C61.3249 51.6883 59.4333 50.5943 57.6112 49.5833C57.9285 44.1961 55.9955 38.5241 52.4867 34.6996C52.4045 39.7718 53.9424 44.7096 56.4985 48.9743C55.0246 48.1916 53.6256 47.4378 52.274 46.7817C51.5555 46.4259 50.8658 46.0765 50.1947 45.7546C49.911 45.6225 49.6347 45.4941 49.361 45.3667C50.1099 41.9621 49.1308 38.2995 46.7552 35.7703C46.2326 39.0276 47.0202 42.2464 48.6747 45.0475C48.5342 44.982 48.3897 44.915 48.2522 44.8508C46.9528 44.2548 45.7813 43.7408 44.7539 43.3052C44.7574 43.3006 44.7609 43.296 44.7639 43.2909C44.7548 43.2932 44.7456 43.2955 44.7365 43.2978C44.5751 43.2295 44.4158 43.1621 44.2617 43.0979C43.8475 39.9914 42.2004 36.9321 39.9001 35.0609C40.3823 37.9262 41.696 40.5774 43.4806 42.7751C43.1334 42.6339 42.8161 42.5073 42.518 42.3904C40.0685 40.5279 37.0733 39.5521 34.0811 39.3697Z" fill="#0CC3BE"/>
<path d="M174.838 71.1806V161.062C174.838 161.518 174.787 161.959 174.685 162.38C174.126 164.728 172.109 166.467 169.709 166.467H33.6364C30.8043 166.467 28.5119 164.046 28.5119 161.062V71.1806C28.5119 68.1965 30.8043 65.781 33.6364 65.781H169.709C172.541 65.781 174.838 68.1965 174.838 71.1806Z" fill="#FD7658"/>
<path d="M174.838 71.1806V146.936C165.766 145.785 156.795 142.634 149.853 136.441C142.171 129.591 137.414 118.571 139.469 108.193C134.27 122.795 117.408 130.414 102.914 127.249C88.4194 124.084 76.6918 112.104 70.0651 98.1537C66.559 90.7747 61.2997 77.4669 60.5555 65.781H169.709C172.541 65.781 174.838 68.1965 174.838 71.1806Z" fill="#F88859"/>
<path d="M174.685 162.38C174.127 164.727 172.109 166.466 169.709 166.466H33.6364C30.8043 166.466 28.5119 164.046 28.5119 161.062V149.826C29.414 151.233 30.4836 152.521 31.6833 153.629C37.0541 158.597 44.485 160.454 51.6325 160.415C58.7753 160.375 65.7971 158.631 72.8093 157.205C95.265 152.644 118.306 151.302 141.097 153.222C152.62 154.198 164.854 156.476 174.685 162.38Z" fill="#DE624C"/>
<path d="M60.0181 101.936H42.991C41.6577 101.936 40.5768 100.797 40.5768 99.3921V81.4511C40.5768 80.0461 41.6577 78.9072 42.991 78.9072H60.0181C61.3514 78.9072 62.4324 80.0461 62.4324 81.4511V99.3921C62.4324 100.797 61.3514 101.936 60.0181 101.936Z" fill="#FDA859"/>
<path d="M59.5551 100.956H43.4541C42.3788 100.956 41.5067 100.038 41.5067 98.9043V81.9389C41.5067 80.8059 42.3783 79.887 43.4541 79.887H59.5551C60.6304 79.887 61.5024 80.8055 61.5024 81.9389V98.9043C61.5024 100.038 60.6304 100.956 59.5551 100.956Z" fill="#FCC700"/>
<path d="M55.0851 97.7713H47.9241C46.7574 97.7713 45.8083 96.7712 45.8083 95.5419V85.3013C45.8083 84.072 46.7574 83.0719 47.9241 83.0719H55.0851C56.2518 83.0719 57.2009 84.072 57.2009 85.3013V95.5419C57.2009 96.7712 56.2518 97.7713 55.0851 97.7713ZM47.9241 85.0321C47.7831 85.0321 47.6682 85.1532 47.6682 85.3013V95.5419C47.6682 95.6905 47.7831 95.8115 47.9241 95.8115H55.0851C55.2261 95.8115 55.341 95.6905 55.341 95.5419V85.3013C55.341 85.1527 55.2261 85.0321 55.0851 85.0321H47.9241Z" fill="#FDA859"/>
<path d="M46.7382 85.7667H41.5067V87.7264H46.7382V85.7667Z" fill="#FDA859"/>
<path d="M46.7382 89.4417H41.5067V91.4015H46.7382V89.4417Z" fill="#FDA859"/>
<path d="M46.7382 93.1163H41.5067V95.0761H46.7382V93.1163Z" fill="#FDA859"/>
<path d="M61.5024 85.7667H56.2709V87.7264H61.5024V85.7667Z" fill="#FDA859"/>
<path d="M61.5024 89.4417H56.2709V91.4015H61.5024V89.4417Z" fill="#FDA859"/>
<path d="M61.5024 93.1163H56.2709V95.0761H61.5024V93.1163Z" fill="#FDA859"/>
<path d="M43.3339 112.679V119.084H41.7473V114.05H40.5768V112.679H43.3339Z" fill="white"/>
<path d="M50.0785 117.065C50.0785 118.298 49.1159 119.157 47.6072 119.157C46.723 119.157 45.8039 118.846 45.2143 118.371L45.8561 117.082C46.3331 117.604 46.9053 117.877 47.4863 117.877C48.1538 117.877 48.5267 117.585 48.5267 117.082C48.5267 116.571 48.1538 116.306 47.4776 116.306H46.4545V115.411L47.8762 113.976H45.535L45.5263 112.688H49.7752V113.656L48.1364 115.264L48.4401 115.31C49.4019 115.466 50.0785 116.087 50.0785 117.065Z" fill="white"/>
<path d="M55.5307 115.877C55.5307 117.969 54.6813 119.129 53.1551 119.129C51.6116 119.129 50.7704 117.969 50.7704 115.877C50.7704 113.785 51.6116 112.634 53.1551 112.634C54.6813 112.634 55.5307 113.785 55.5307 115.877ZM52.2879 115.877C52.2879 117.339 52.5394 117.951 53.1551 117.951C53.7622 117.951 54.0133 117.339 54.0133 115.877C54.0133 114.406 53.7618 113.803 53.1551 113.803C52.5394 113.803 52.2879 114.406 52.2879 115.877Z" fill="white"/>
<path d="M60.992 112.67V113.831L58.7026 119.084H57.029L59.2487 114.022H57.549V114.918H56.1443V112.67H60.992Z" fill="white"/>
<path d="M73.3171 117.887C74.2623 117.887 74.7218 117.247 74.7044 116.196C74.4185 116.626 73.9503 116.891 73.291 116.891C72.1117 116.891 71.3663 116.059 71.3663 114.808C71.3663 113.455 72.2505 112.606 73.5947 112.606C75.1987 112.606 76.17 113.812 76.17 115.776C76.17 117.823 75.0947 119.157 73.4128 119.157C72.7453 119.157 71.9907 118.947 71.479 118.627L72.0686 117.476C72.4154 117.741 72.8576 117.887 73.3171 117.887ZM72.7884 114.817C72.7884 115.366 73.0917 115.694 73.6295 115.694C74.2192 115.694 74.5399 115.311 74.5312 114.79C74.5399 114.324 74.2627 113.913 73.6556 113.913C73.1178 113.913 72.7884 114.241 72.7884 114.817Z" fill="white"/>
<path d="M80.0443 112.679V119.084H78.4577V114.05H77.2871V112.679H80.0443Z" fill="white"/>
<path d="M85.3924 112.679V119.084H83.8058V114.05H82.6352V112.679H85.3924Z" fill="white"/>
<path d="M92.137 117.065C92.137 118.298 91.1744 119.157 89.6662 119.157C88.7819 119.157 87.8624 118.846 87.2728 118.371L87.9146 117.082C88.3916 117.604 88.9638 117.877 89.5447 117.877C90.2123 117.877 90.5852 117.585 90.5852 117.082C90.5852 116.571 90.2123 116.306 89.5361 116.306H88.513V115.411L89.9347 113.976H87.5939L87.5852 112.688H91.8337V113.656L90.1949 115.264L90.4986 115.31C91.4603 115.466 92.137 116.087 92.137 117.065Z" fill="white"/>
<path d="M107.557 115.877C107.557 117.969 106.708 119.129 105.182 119.129C103.638 119.129 102.797 117.969 102.797 115.877C102.797 113.785 103.638 112.634 105.182 112.634C106.708 112.634 107.557 113.785 107.557 115.877ZM104.315 115.877C104.315 117.339 104.566 117.951 105.182 117.951C105.789 117.951 106.04 117.339 106.04 115.877C106.04 114.406 105.789 113.803 105.182 113.803C104.566 113.803 104.315 114.406 104.315 115.877Z" fill="white"/>
<path d="M110.53 114.991C111.961 114.991 112.889 115.785 112.889 116.927C112.889 118.28 111.909 119.157 110.409 119.157C109.594 119.157 108.657 118.837 107.998 118.353L108.631 117.055C109.108 117.585 109.663 117.859 110.218 117.859C110.834 117.859 111.181 117.567 111.181 117.046C111.181 116.562 110.834 116.288 110.227 116.288C109.906 116.288 108.909 116.297 108.527 116.324V112.67H112.611V114.022H109.984V114.999C110.114 114.991 110.409 114.991 110.53 114.991Z" fill="white"/>
<path d="M115.376 117.887C116.321 117.887 116.78 117.247 116.763 116.196C116.477 116.626 116.009 116.891 115.349 116.891C114.17 116.891 113.425 116.059 113.425 114.808C113.425 113.455 114.309 112.606 115.653 112.606C117.257 112.606 118.229 113.812 118.229 115.776C118.229 117.823 117.153 119.157 115.471 119.157C114.803 119.157 114.049 118.947 113.537 118.627L114.127 117.476C114.474 117.741 114.916 117.887 115.376 117.887ZM114.847 114.817C114.847 115.366 115.15 115.694 115.688 115.694C116.278 115.694 116.598 115.311 116.59 114.79C116.598 114.324 116.321 113.913 115.714 113.913C115.176 113.913 114.847 114.241 114.847 114.817Z" fill="white"/>
<path d="M121.739 114.534C121.739 114.187 121.487 113.986 121.045 113.986C120.551 113.986 119.927 114.296 119.363 114.799L118.765 113.566C119.545 112.963 120.395 112.597 121.279 112.597C122.511 112.597 123.403 113.273 123.403 114.288C123.403 114.982 122.9 115.704 122.224 116.426L120.976 117.741H123.577V119.084H118.947L118.938 117.979L121.149 115.585C121.487 115.219 121.739 114.808 121.739 114.534Z" fill="white"/>
<path d="M137.055 114.534C137.055 114.187 136.804 113.986 136.362 113.986C135.867 113.986 135.243 114.296 134.68 114.799L134.082 113.566C134.862 112.963 135.712 112.597 136.596 112.597C137.827 112.597 138.72 113.273 138.72 114.288C138.72 114.982 138.217 115.704 137.541 116.426L136.293 117.741H138.894V119.084H134.264L134.255 117.979L136.466 115.585C136.804 115.219 137.055 114.808 137.055 114.534Z" fill="white"/>
<path d="M144.381 112.67V113.831L142.092 119.084H140.418L142.638 114.022H140.938V114.918H139.533V112.67H144.381Z" fill="white"/>
<path d="M148.116 112.679V119.084H146.529V114.05H145.359V112.679H148.116Z" fill="white"/>
<path d="M153.465 112.679V119.084H151.878V114.05H150.707V112.679H153.465Z" fill="white"/>
<path d="M42.35 130.732V134.851H41.3296V131.613H40.5768V130.732H42.35Z" fill="white"/>
<path d="M45.7931 130.732V134.851H44.7726V131.613H44.0198V130.732H45.7931Z" fill="white"/>
<path d="M49.381 130.091L47.5742 135.498H46.7378L48.5446 130.091H49.381Z" fill="white"/>
<path d="M50.9828 131.925C50.9828 131.701 50.8209 131.572 50.5368 131.572C50.2191 131.572 49.817 131.772 49.4549 132.095L49.0703 131.302C49.5724 130.915 50.119 130.679 50.6878 130.679C51.4798 130.679 52.0542 131.114 52.0542 131.766C52.0542 132.213 51.7308 132.677 51.2957 133.141L50.4924 133.988H52.1656V134.852H49.1873L49.1817 134.14L50.6038 132.601C50.8209 132.365 50.9828 132.101 50.9828 131.925Z" fill="white"/>
<path d="M55.5577 133.553C55.5577 134.346 54.9389 134.898 53.9685 134.898C53.3997 134.898 52.8083 134.699 52.4293 134.393L52.8418 133.564C53.1486 133.899 53.5168 134.076 53.8906 134.076C54.3201 134.076 54.5598 133.888 54.5598 133.564C54.5598 133.236 54.3201 133.065 53.8849 133.065H53.2269V132.49L54.1417 131.567H52.636L52.6308 130.739H55.3636V131.362L54.3092 132.396L54.5046 132.425C55.1225 132.524 55.5577 132.924 55.5577 133.553Z" fill="white"/>
<path d="M41.0354 126.888L41.4427 128.131L41.8522 126.888H42.2896L41.652 128.607H41.2095L40.5763 126.888H41.0354Z" fill="white"/>
<path d="M43.401 128.303H42.6956L42.5816 128.607H42.1442L42.8448 126.888H43.2822L43.9662 128.607H43.5124L43.401 128.303ZM43.2752 127.96L43.052 127.347L42.8239 127.96H43.2752Z" fill="white"/>
<path d="M44.5372 126.888V128.225H45.2282V128.607H44.1111V126.888H44.5372Z" fill="white"/>
<path d="M45.8462 126.888V128.607H45.4201V126.888H45.8462Z" fill="white"/>
<path d="M47.7326 127.747C47.7326 128.259 47.3766 128.607 46.8483 128.607H46.1616V126.888H46.8644C47.3814 126.888 47.7326 127.236 47.7326 127.747ZM47.2974 127.751C47.2974 127.454 47.1133 127.254 46.8553 127.254H46.5877V128.244H46.8762C47.1229 128.244 47.2974 128.046 47.2974 127.751Z" fill="white"/>
<path d="M49.6969 126.888L49.6947 127.246H48.9036V127.629H49.6342V127.987H48.9036V128.608H48.4776V126.888H49.6969V126.888Z" fill="white"/>
<path d="M50.8683 128.607L50.6312 128.132H50.622H50.3148V128.607H49.8888V126.888H50.622C51.055 126.888 51.3018 127.109 51.3018 127.491C51.3018 127.751 51.1995 127.942 51.0106 128.045L51.3505 128.607H50.8683V128.607ZM50.3148 127.773H50.6242C50.7965 127.773 50.8966 127.68 50.8966 127.506C50.8966 127.337 50.7965 127.246 50.6242 127.246H50.3148V127.773Z" fill="white"/>
<path d="M53.2317 127.747C53.2317 128.25 52.8549 128.627 52.3497 128.627C51.8444 128.627 51.4676 128.25 51.4676 127.747C51.4676 127.246 51.8444 126.876 52.3497 126.876C52.8545 126.876 53.2317 127.249 53.2317 127.747ZM51.9049 127.749C51.9049 128.029 52.1121 128.244 52.354 128.244C52.5981 128.244 52.794 128.029 52.794 127.749C52.794 127.47 52.5986 127.258 52.354 127.258C52.1099 127.258 51.9049 127.469 51.9049 127.749Z" fill="white"/>
<path d="M53.9067 126.888L54.3397 127.891L54.7727 126.888H55.2383V128.607H54.861L54.8588 127.519L54.4798 128.435H54.2004L53.8209 127.519V128.607H53.4415V126.888H53.9067Z" fill="white"/>
<path d="M109.361 145.772H40.5768V150.289H109.361V145.772Z" fill="white"/>
<path d="M131.186 169.631H103.581H101.925V172.881C101.925 176.866 108.846 180.097 117.387 180.097C125.922 180.097 132.843 176.867 132.843 172.881V169.631H131.186Z" fill="#FDA859"/>
<path d="M132.847 169.628C132.847 169.672 132.847 169.71 132.841 169.755C132.703 173.683 125.83 176.844 117.386 176.844C108.845 176.844 101.924 173.614 101.924 169.628C101.924 169.19 102.008 168.759 102.177 168.34C103.472 164.97 109.79 162.412 117.385 162.412C124.974 162.412 131.299 164.97 132.594 168.34C132.744 168.714 132.829 169.108 132.841 169.501C132.847 169.546 132.847 169.584 132.847 169.628Z" fill="#FCC700"/>
<path d="M117.386 175.498C124.33 175.498 129.959 172.87 129.959 169.629C129.959 166.387 124.33 163.76 117.386 163.76C110.442 163.76 104.812 166.387 104.812 169.629C104.812 172.87 110.442 175.498 117.386 175.498Z" fill="#FDA859"/>
<path d="M118.809 171.813V173.045H116.514V171.804C114.893 171.699 113.322 171.385 112.166 170.942L113.391 169.791C114.634 170.29 116.514 170.644 117.774 170.644C118.705 170.644 119.292 170.483 119.292 170.185C119.292 169.227 112.926 169.807 112.926 167.81C112.926 166.916 114.306 166.296 116.514 166.126V164.943H118.809V166.119C120.223 166.191 121.569 166.417 122.586 166.723L121.396 167.891C120.119 167.552 118.498 167.287 117.497 167.287C116.738 167.287 116.238 167.416 116.238 167.674C116.238 168.608 122.604 168.076 122.604 170.106C122.605 171.095 120.983 171.676 118.809 171.813Z" fill="#FCC700"/>
<path d="M136.61 165.95H109.005H107.349V169.2C107.349 173.185 114.27 176.416 122.811 176.416C131.346 176.416 138.266 173.186 138.266 169.2V165.95H136.61Z" fill="#FDA859"/>
<path d="M138.271 165.947C138.271 165.992 138.271 166.03 138.265 166.074C138.126 170.003 131.254 173.163 122.809 173.163C114.268 173.163 107.347 169.933 107.347 165.947C107.347 165.509 107.432 165.078 107.6 164.659C108.895 161.289 115.213 158.731 122.809 158.731C130.398 158.731 136.722 161.289 138.017 164.659C138.168 165.033 138.252 165.427 138.264 165.82C138.271 165.865 138.271 165.903 138.271 165.947Z" fill="#FCC700"/>
<path d="M122.809 171.817C129.753 171.817 135.382 169.19 135.382 165.948C135.382 162.707 129.753 160.079 122.809 160.079C115.865 160.079 110.236 162.707 110.236 165.948C110.236 169.19 115.865 171.817 122.809 171.817Z" fill="#FDA859"/>
<path d="M124.233 168.132V169.364H121.938V168.123C120.316 168.018 118.746 167.704 117.59 167.261L118.815 166.11C120.058 166.609 121.938 166.963 123.198 166.963C124.129 166.963 124.716 166.802 124.716 166.504C124.716 165.546 118.349 166.126 118.349 164.129C118.349 163.235 119.729 162.615 121.937 162.445V161.262H124.232V162.437C125.647 162.51 126.993 162.735 128.01 163.042L126.82 164.209C125.543 163.871 123.922 163.605 122.92 163.605C122.161 163.605 121.661 163.734 121.661 163.992C121.661 164.926 128.028 164.394 128.028 166.424C128.028 167.415 126.406 167.995 124.233 168.132Z" fill="#FCC700"/>
<path d="M128.935 158.456H101.33H99.674V161.705C99.674 165.691 106.595 168.922 115.136 168.922C123.671 168.922 130.591 165.691 130.591 161.705V158.456H128.935Z" fill="#FDA859"/>
<path d="M130.596 158.452C130.596 158.497 130.596 158.535 130.59 158.579C130.452 162.508 123.579 165.668 115.134 165.668C106.594 165.668 99.6732 162.438 99.6732 158.452C99.6732 158.014 99.7576 157.583 99.926 157.164C101.221 153.794 107.539 151.236 115.134 151.236C122.724 151.236 129.048 153.794 130.343 157.164C130.494 157.538 130.578 157.932 130.59 158.325C130.596 158.37 130.596 158.408 130.596 158.452Z" fill="#FCC700"/>
<path d="M115.134 164.322C122.078 164.322 127.708 161.695 127.708 158.453C127.708 155.212 122.078 152.584 115.134 152.584C108.191 152.584 102.561 155.212 102.561 158.453C102.561 161.695 108.191 164.322 115.134 164.322Z" fill="#FDA859"/>
<path d="M116.558 160.637V161.869H114.263V160.628C112.641 160.523 111.071 160.209 109.915 159.766L111.14 158.614C112.383 159.114 114.263 159.468 115.523 159.468C116.454 159.468 117.041 159.307 117.041 159.009C117.041 158.051 110.675 158.631 110.675 156.634C110.675 155.74 112.054 155.12 114.262 154.95V153.767H116.557V154.942C117.972 155.015 119.318 155.24 120.335 155.547L119.145 156.714C117.868 156.376 116.247 156.11 115.245 156.11C114.487 156.11 113.987 156.239 113.987 156.497C113.987 157.431 120.353 156.9 120.353 158.929C120.353 159.92 118.732 160.5 116.558 160.637Z" fill="#FCC700"/>
<path d="M139.498 151.403H111.893H110.237V154.652C110.237 158.638 117.158 161.869 125.699 161.869C134.233 161.869 141.154 158.638 141.154 154.652V151.403H139.498Z" fill="#FDA859"/>
<path d="M141.159 151.4C141.159 151.445 141.159 151.483 141.153 151.527C141.015 155.456 134.142 158.616 125.697 158.616C117.156 158.616 110.235 155.386 110.235 151.4C110.235 150.962 110.32 150.531 110.488 150.112C111.783 146.741 118.101 144.184 125.697 144.184C133.286 144.184 139.61 146.741 140.905 150.112C141.056 150.486 141.14 150.88 141.152 151.273C141.159 151.318 141.159 151.356 141.159 151.4Z" fill="#FCC700"/>
<path d="M125.697 157.27C132.641 157.27 138.27 154.642 138.27 151.401C138.27 148.16 132.641 145.532 125.697 145.532C118.753 145.532 113.124 148.16 113.124 151.401C113.124 154.642 118.753 157.27 125.697 157.27Z" fill="#FDA859"/>
<path d="M127.121 153.584V154.817H124.826V153.576C123.204 153.471 121.634 153.157 120.478 152.714L121.703 151.562C122.946 152.062 124.826 152.416 126.085 152.416C127.017 152.416 127.604 152.255 127.604 151.957C127.604 150.999 121.237 151.578 121.237 149.582C121.237 148.687 122.617 148.068 124.825 147.898V146.714H127.12V147.89C128.535 147.963 129.88 148.188 130.898 148.494L129.708 149.662C128.431 149.324 126.809 149.058 125.808 149.058C125.049 149.058 124.549 149.187 124.549 149.444C124.549 150.379 130.916 149.847 130.916 151.876C130.917 152.868 129.294 153.448 127.121 153.584Z" fill="#FCC700"/>
<path d="M74.1067 177.144C81.3521 172.36 83.5451 162.293 79.005 154.659C74.4649 147.024 64.9109 144.714 57.6655 149.497C50.4201 154.281 48.2271 164.348 52.7672 171.983C57.3073 179.617 66.8613 181.928 74.1067 177.144Z" fill="#FCC700"/>
<path d="M67.9707 176.408C74.8271 175.187 79.4457 168.34 78.2865 161.115C77.1273 153.891 70.6293 149.024 63.7728 150.246C56.9164 151.467 52.2978 158.314 53.457 165.539C54.6162 172.763 61.1142 177.63 67.9707 176.408Z" fill="#FDA859"/>
<path d="M69.7714 168.425L70.9102 170.938L68.8362 171.982L67.69 169.452C66.1278 169.975 64.4184 170.049 62.9646 169.671L63.0072 166.765C64.5916 167.219 66.6182 167.087 67.7566 166.514C68.5982 166.09 68.9798 165.495 68.7044 164.887C67.8184 162.932 62.6012 167.009 60.7552 162.936C59.9289 161.112 60.6025 159.22 62.4419 157.871L61.3475 155.456L63.4215 154.412L64.5085 156.811C65.854 156.315 67.2783 156.164 68.4807 156.326L68.4846 159.248C67.0181 159.139 65.3075 159.334 64.4028 159.789C63.717 160.135 63.3841 160.625 63.6225 161.15C64.4859 163.056 69.7479 159.077 71.6239 163.217C72.5386 165.237 71.6091 167.158 69.7714 168.425Z" fill="#FCC700"/>
<path d="M148.99 33.4955C139.792 23.8037 124.826 23.8037 115.628 33.4955C115.102 34.0499 115.102 34.949 115.628 35.5034C116.154 36.0578 117.007 36.0578 117.534 35.5034C125.681 26.9185 138.937 26.9185 147.085 35.5034C147.611 36.0578 148.465 36.0578 148.991 35.5034C149.517 34.9486 149.516 34.0499 148.99 33.4955Z" fill="#C1BED7"/>
<path d="M119.865 37.9597C119.339 38.5141 119.339 39.4132 119.865 39.9676C120.391 40.5219 121.244 40.5219 121.77 39.9676C127.581 33.8445 137.037 33.8445 142.848 39.9676C143.374 40.5219 144.227 40.5219 144.753 39.9676C145.28 39.4132 145.28 38.5141 144.753 37.9597C137.892 30.7297 126.727 30.7297 119.865 37.9597Z" fill="#C1BED7"/>
<path d="M124.127 42.4509C123.601 43.0053 123.601 43.9045 124.127 44.4588C124.653 45.0132 125.506 45.0132 126.033 44.4588C129.494 40.8122 135.125 40.8122 138.586 44.4588C139.112 45.0132 139.965 45.0132 140.491 44.4588C141.018 43.9045 141.018 43.0053 140.491 42.4509C135.98 37.697 128.639 37.697 124.127 42.4509Z" fill="#C1BED7"/>
<path d="M130.227 45.6482C128.772 47.182 128.772 49.669 130.227 51.2032C131.683 52.737 134.043 52.737 135.499 51.2032C136.955 49.6695 136.955 47.1824 135.499 45.6482C134.043 44.1145 131.683 44.1145 130.227 45.6482Z" fill="#C1BED7"/>
<path d="M223.965 35.7157L223.392 33.9279L222.819 35.7157C222.081 38.0175 220.548 39.9424 218.525 41.1084C220.548 42.2739 222.081 44.1993 222.819 46.5011L223.392 48.2888L223.965 46.5011C224.703 44.1993 226.236 42.2739 228.259 41.1084C226.236 39.9424 224.703 38.0175 223.965 35.7157Z" fill="#FCC700"/>
<path d="M231.146 51.0152L230.748 49.7754L230.35 51.0152C229.839 52.6118 228.776 53.947 227.372 54.7558C228.775 55.5647 229.838 56.8999 230.35 58.4965L230.748 59.7363L231.146 58.4965C231.658 56.8999 232.721 55.5647 234.124 54.7558C232.721 53.947 231.658 52.6118 231.146 51.0152Z" fill="#FCC700"/>
<path d="M226.699 78.6701C226.101 80.822 225.095 82.8147 224.078 84.7863C224.003 84.0921 223.792 83.4456 223.49 82.8413C222.72 81.3149 221.352 80.0746 219.939 79.1259C218.153 77.9177 216.232 76.958 214.687 75.3944C212.755 73.4388 211.81 70.7569 211.578 67.9847C211.387 65.6471 211.513 63.1244 212.65 61.1211C212.816 60.8139 213.012 60.5222 213.233 60.2467C213.46 59.9605 213.711 59.69 213.993 59.4355C213.887 59.5309 213.953 59.7693 214.118 60.077C214.586 60.9569 215.834 62.388 216.04 62.5998C217.333 63.9089 218.953 64.5554 220.507 65.3349C223.198 66.6862 225.814 69.0026 226.785 72.05C227.464 74.1757 227.298 76.5183 226.699 78.6701Z" fill="#343C4B"/>
<path d="M216.236 53.3885C216.221 54.9627 216.191 56.595 215.577 58.026C215.24 58.8156 214.732 59.5048 214.119 60.077C213.847 60.3315 213.551 60.5594 213.244 60.7662C213.053 60.8987 212.856 61.0152 212.65 61.1215C212.137 61.3971 211.589 61.6089 211.03 61.7575C209.099 62.261 207.052 62.017 205.14 61.4393C203.425 60.9198 201.735 60.0931 200.507 58.7203C199.461 57.5382 198.807 56.0173 198.42 54.4482C197.937 52.5242 197.846 50.4678 198.209 48.5227C198.36 47.6744 198.601 46.8532 198.933 46.0687C198.998 45.9151 199.069 45.7615 199.139 45.6074C199.245 45.3901 199.355 45.1782 199.471 44.9714C199.703 44.5634 199.954 44.1869 200.236 43.8265C201.745 41.8709 203.898 40.7049 206.307 40.3495C207.157 40.2225 207.992 40.2597 208.792 40.4344C210.497 40.7948 212.061 41.7806 213.354 43.1534C214.436 44.3034 215.271 45.7188 215.713 47.2769C216.277 49.2435 216.262 51.3371 216.236 53.3885Z" fill="#343C4B"/>
<path d="M177.294 73.6163C176.996 73.4466 176.62 73.4998 176.319 73.664C176.018 73.8281 175.777 74.0895 175.541 74.3458C174.931 75.0102 174.32 75.675 173.71 76.3394C173.619 76.4389 173.524 76.543 173.479 76.6732C173.359 77.0231 173.662 77.406 174.006 77.4894C174.35 77.5729 174.706 77.4477 175.039 77.3239C174.734 77.6724 174.378 78.0218 174.074 78.3702C174.013 78.4395 173.949 78.5202 173.956 78.6137C173.963 78.7137 174.048 78.7852 174.13 78.8366C174.602 79.1332 175.212 79.1713 175.714 78.9351C175.472 79.1846 175.283 79.4597 175.04 79.7091C174.957 79.7949 174.867 79.904 174.892 80.0232C174.912 80.1167 174.998 80.1768 175.078 80.2222C175.647 80.5432 176.341 80.6083 176.955 80.3978C177.05 81.4052 177.401 82.4373 178.313 82.7551L182.9 79.0337L180.854 74.863L177.294 73.6163Z" fill="#FF7D6F"/>
<path d="M177.229 74.0551C177.229 74.0551 179.271 76.0639 180.096 76.1166C180.096 76.1166 179.055 79.9751 179.991 81.3901L182.008 79.7522L182.898 79.0314C182.898 79.0314 182.37 75.0194 181.771 74.415C181.178 73.8107 175.826 71.574 175.731 71.6378C175.715 71.6433 175.695 71.6854 175.67 71.7437V71.7492C175.529 72.1472 175.373 73.4668 177.229 74.0551Z" fill="#FFA07F"/>
<path d="M173.932 71.0371L180.443 76.3202L179.956 77.5128L173.239 71.7881L173.932 71.0371Z" fill="#343C4B"/>
<path d="M180.753 80.7756C180.753 80.7756 179.469 76.2775 179.263 76.1349C179.058 75.9923 178.173 74.233 177.744 74.0881C177.316 73.9427 176.493 74.1917 176.441 74.6122C176.388 75.0326 177.121 76.4325 177.121 76.4325C177.121 76.4325 177.946 80.0067 178.02 80.3813C178.095 80.7555 178.313 82.756 178.313 82.756L180.753 80.7756Z" fill="#FFA07F"/>
<path d="M178.311 82.7583C178.311 82.7583 178.492 83.3998 179.216 83.9986C179.935 84.5974 181.012 85.3714 181.012 85.3714L183.613 83.1081L184.241 82.562L183.386 81.3905L182.899 79.0319L182.008 79.7527L179.991 81.3905L178.311 82.7583Z" fill="#FFA07F"/>
<path d="M175.67 71.7446V71.7501C177.189 72.6245 181.123 74.8933 181.278 74.9565C181.404 75.0093 181.766 77.7709 182.008 79.7531C182.144 80.866 182.244 81.7353 182.244 81.7353L183.612 83.1081L184.241 82.5621L183.386 81.3905L182.898 79.0319C182.898 79.0319 182.37 75.0198 181.771 74.4155C181.178 73.8111 175.826 71.5745 175.731 71.6382C175.715 71.6437 175.695 71.6859 175.67 71.7446Z" fill="#FFBF90"/>
<path d="M200.544 176.411H205.92C205.92 176.411 208.24 152.258 207.828 150.019C207.624 148.907 207.247 147.432 206.85 146.003L198.584 146.405C199.376 154.529 200.544 176.411 200.544 176.411Z" fill="#FFA07F"/>
<path d="M224.805 173.665C224.805 173.665 223.779 153.494 223.65 151.699C223.516 149.831 222.219 146.466 221.057 143.773L213.396 145.926C215.047 151.228 219.363 174.32 219.363 174.32L224.805 173.665Z" fill="#FFA07F"/>
<path d="M189.414 183.233C189.467 182.89 189.621 182.49 190.036 182.295C191.246 181.727 195.688 179.968 196.892 178.962C197.827 178.181 198.653 176.479 198.976 175.758L207.228 176.214C207.7 178.477 208 182.837 208.06 183.749L189.414 183.233Z" fill="#456997"/>
<path d="M189.359 185.209L208.004 185.726L208.061 183.749L189.414 183.233L189.359 185.209Z" fill="white"/>
<path d="M198.447 179.559C198.46 179.582 198.471 179.606 198.483 179.629C198.569 179.805 198.621 180.072 198.401 180.171C198.289 180.221 198.161 180.201 198.043 180.174C197.635 180.078 197.262 179.882 196.907 179.656C196.525 179.412 196.118 179.149 195.876 178.74C195.625 178.317 195.996 177.938 196.437 178.048C197.199 178.236 198.052 178.825 198.447 179.559Z" fill="white"/>
<path d="M197.017 180.58C197.029 180.602 197.041 180.626 197.052 180.649C197.138 180.825 197.19 181.093 196.97 181.191C196.859 181.241 196.731 181.221 196.612 181.194C196.205 181.099 195.832 180.902 195.476 180.676C195.094 180.432 194.688 180.169 194.445 179.76C194.195 179.337 194.565 178.959 195.006 179.068C195.769 179.256 196.622 179.845 197.017 180.58Z" fill="white"/>
<path d="M195.271 181.23C195.284 181.253 195.295 181.276 195.307 181.299C195.393 181.475 195.444 181.743 195.225 181.841C195.113 181.891 194.985 181.872 194.867 181.844C194.459 181.749 194.086 181.552 193.731 181.326C193.349 181.083 192.942 180.819 192.7 180.41C192.449 179.987 192.819 179.609 193.261 179.718C194.023 179.906 194.876 180.495 195.271 181.23Z" fill="white"/>
<path d="M216.695 185.621C216.695 186.414 222.485 187.998 223.592 187.898C224.695 187.801 228.741 184.732 228.741 184.732C228.741 184.732 228.581 184.105 228.329 183.132C227.623 180.417 226.173 175.028 225.326 173.082L218.811 174.016C218.465 175.159 217.326 180.984 216.997 183.18C216.821 184.362 216.695 185.344 216.695 185.621Z" fill="#456997"/>
<path d="M228.74 184.733C228.74 184.733 224.694 187.8 223.59 187.899C222.487 187.997 216.695 186.415 216.695 185.623C216.695 185.345 216.819 184.364 216.996 183.18C218.881 183.975 222.918 185.549 224.25 185.034C225.153 184.684 226.873 183.854 228.329 183.131C228.582 184.105 228.74 184.733 228.74 184.733Z" fill="white"/>
<path d="M223.578 178.72C223.601 178.731 223.624 178.741 223.646 178.753C223.813 178.837 224.004 179.018 223.884 179.238C223.823 179.35 223.71 179.418 223.6 179.472C223.221 179.66 222.813 179.745 222.403 179.794C221.961 179.847 221.489 179.901 221.067 179.731C220.63 179.556 220.714 179.014 221.127 178.816C221.841 178.472 222.852 178.39 223.578 178.72Z" fill="white"/>
<path d="M223.578 180.435C223.601 180.445 223.624 180.456 223.646 180.467C223.813 180.552 224.004 180.732 223.884 180.952C223.823 181.065 223.71 181.132 223.6 181.187C223.221 181.375 222.813 181.459 222.403 181.509C221.961 181.562 221.489 181.615 221.067 181.446C220.63 181.27 220.714 180.728 221.127 180.53C221.841 180.187 222.852 180.104 223.578 180.435Z" fill="white"/>
<path d="M223.734 182.005C223.757 182.015 223.78 182.026 223.802 182.037C223.969 182.122 224.16 182.302 224.04 182.522C223.979 182.635 223.866 182.702 223.756 182.757C223.377 182.945 222.969 183.029 222.559 183.079C222.118 183.132 221.645 183.185 221.223 183.016C220.786 182.84 220.87 182.298 221.283 182.1C221.998 181.757 223.008 181.674 223.734 182.005Z" fill="white"/>
<path d="M226.805 165.078L195.794 167.023C195.794 167.023 195.663 165.687 195.462 163.578C194.869 157.361 193.681 144.402 193.536 139.118C193.324 131.671 194.391 109.517 194.391 109.517L215.673 109.278L218.254 109.252L219.104 112.188L219.939 127.272C219.939 127.272 224.959 144.232 224.803 146.003C224.652 147.778 226.805 165.078 226.805 165.078Z" fill="#414C5B"/>
<path d="M226.805 165.078L195.794 167.023C195.794 167.023 195.663 165.687 195.462 163.578L222.72 161.209C222.72 161.209 222.278 150.412 220.93 146.003C219.587 141.593 215.935 127.802 215.935 127.802L215.673 109.278L218.254 109.252L219.104 112.188L219.939 127.272C219.939 127.272 224.959 144.232 224.803 146.003C224.652 147.778 226.805 165.078 226.805 165.078Z" fill="#343C4B"/>
<path d="M235.592 67.0374C235.592 67.0374 234.902 65.3147 234.021 65.2487C233.141 65.1822 234.399 69.6221 234.399 69.6221L235.592 67.0374Z" fill="#FFA07F"/>
<path d="M236.415 77.4206L240.026 73.7286L235.869 70.2507L234.651 74.166L233.576 75.4288L236.415 77.4206Z" fill="#FFA07F"/>
<path d="M244.523 65.3381C244.213 63.5031 240.263 60.6896 239.712 60.762C239.16 60.8345 232.942 69.4052 232.874 70.3498C232.805 71.2939 236.585 74.8268 237.63 74.8222C238.165 74.6915 244.799 66.9723 244.523 65.3381Z" fill="#456997"/>
<path d="M240.026 73.7286C240.026 73.7286 241.242 73.1545 240.76 72.2049C240.278 71.2553 239.237 70.2397 238.867 70.5043C238.496 70.7693 238.867 73.7043 238.867 73.7043L240.026 73.7286Z" fill="#FFA07F"/>
<path d="M240.873 72.8455C240.873 72.8455 242.327 71.9624 241.846 71.0128C241.364 70.0632 240.323 69.0476 239.952 69.3121C239.582 69.5771 239.952 72.5122 239.952 72.5122L240.873 72.8455Z" fill="#FFA07F"/>
<path d="M241.858 71.4099C241.858 71.4099 243.312 70.5268 242.83 69.5772C242.348 68.6276 241.307 67.6119 240.937 67.8765C240.567 68.1415 240.937 71.0765 240.937 71.0765L241.858 71.4099Z" fill="#FFA07F"/>
<path d="M242.83 69.5767C242.83 69.5767 244.342 68.1002 244.184 67.4015C244.025 66.7027 242.95 65.8113 242.667 66.0433C242.384 66.2753 242.928 68.6184 242.928 68.6184L242.475 69.269L242.83 69.5767Z" fill="#FFA07F"/>
<path d="M233.882 68.296C233.742 68.6298 236.618 71.2113 237.107 71.2746C237.555 71.3383 241.75 66.3294 242.524 65.3968L242.534 65.3863C242.609 65.2959 242.65 65.2482 242.65 65.2482C242.65 65.2482 238.943 61.6708 238.691 61.7396C238.641 61.7502 238.42 62.0152 238.098 62.4338C236.825 64.0611 233.993 68.0365 233.882 68.296Z" fill="#DFDEEE"/>
<path d="M238.097 62.4343L241.945 65.9429L242.524 65.3968L242.534 65.3863C242.609 65.2959 242.649 65.2482 242.649 65.2482C242.649 65.2482 238.942 61.6708 238.691 61.7396C238.641 61.7502 238.419 62.0152 238.097 62.4343Z" fill="#C1BED7"/>
<path d="M233.882 68.296C233.742 68.6298 236.618 71.2113 237.107 71.2746C237.358 71.3117 238.772 69.7642 240.11 68.2323L236.473 64.6072C236.377 64.7342 236.282 64.8668 236.186 64.9993C236.041 65.2006 235.9 65.3913 235.754 65.593V65.5981C235.699 65.6724 235.648 65.7467 235.593 65.8209C235.447 66.0277 235.301 66.229 235.165 66.4198C235.11 66.4991 235.055 66.5734 235.004 66.6477C234.848 66.865 234.707 67.0718 234.581 67.252C234.526 67.3313 234.471 67.4056 234.42 67.4799C234.245 67.7343 234.104 67.9462 234.008 68.0892C233.937 68.1952 233.892 68.2694 233.882 68.296Z" fill="#C1BED7"/>
<path d="M242.101 63.327L240.19 61.7373L239.932 62.0519L241.85 63.5921L242.101 63.327Z" fill="#698BB1"/>
<path d="M237.947 67.7724L238.854 68.6655L239.337 68.1209L238.429 67.2278L237.947 67.7724Z" fill="#DFDEEE"/>
<path d="M236.817 66.649L237.724 67.5422L238.207 66.9972L237.3 66.1041L236.817 66.649Z" fill="#DFDEEE"/>
<path d="M235.753 65.593V65.5981L236.594 66.4198L237.077 65.8792L236.186 64.9993C236.04 65.2006 235.899 65.3918 235.753 65.593Z" fill="#DFDEEE"/>
<path d="M237.283 68.5224L238.19 69.4155L238.673 68.8709L237.765 67.9778L237.283 68.5224Z" fill="#DFDEEE"/>
<path d="M236.145 67.4035L237.053 68.2966L237.535 67.7521L236.628 66.8589L236.145 67.4035Z" fill="#DFDEEE"/>
<path d="M235.165 66.4198L235.929 67.1722L236.412 66.6261L235.592 65.8205C235.446 66.0277 235.3 66.229 235.165 66.4198Z" fill="#DFDEEE"/>
<path d="M236.617 69.2733L237.525 70.1665L238.007 69.6219L237.1 68.7287L236.617 69.2733Z" fill="#DFDEEE"/>
<path d="M235.479 68.1541L236.387 69.0472L236.87 68.5026L235.962 67.6095L235.479 68.1541Z" fill="#DFDEEE"/>
<path d="M234.581 67.252L235.265 67.9251L235.748 67.379L235.004 66.6476C234.848 66.865 234.707 67.0718 234.581 67.252Z" fill="#DFDEEE"/>
<path d="M235.952 70.0235L236.859 70.9166L237.342 70.3717L236.435 69.4786L235.952 70.0235Z" fill="#FCC700"/>
<path d="M234.814 68.9046L235.722 69.7977L236.205 69.2531L235.297 68.36L234.814 68.9046Z" fill="#DFDEEE"/>
<path d="M234.008 68.0892L234.602 68.672L235.085 68.1259L234.421 67.4794C234.244 67.7343 234.103 67.9462 234.008 68.0892Z" fill="#FD7658"/>
<path d="M236.935 72.3209L236.018 71.4759L235.524 72.0954L236.415 72.917L236.935 72.3209Z" fill="#FD7658"/>
<path d="M235.678 71.1815L234.76 70.3369L234.266 70.9559L235.157 71.7776L235.678 71.1815Z" fill="#FCC700"/>
<path d="M234.582 70.1141L233.665 69.269L233.171 69.888L234.062 70.7102L234.582 70.1141Z" fill="#0CC3BE"/>
<path d="M244.066 65.2478C244.066 65.2478 242.943 65.2982 242.648 65.5797C242.352 65.8613 237.935 71.3269 237.873 71.4759C237.81 71.6249 237.685 74.1688 237.519 74.2302C237.353 74.2917 237.192 71.2503 237.192 71.2503C237.192 71.2503 242.189 65.1162 242.648 65.0662C243.107 65.0167 244.396 65.0483 244.066 65.2478Z" fill="#254F79"/>
<path d="M238.304 65.9837L238.151 66.1598L238.005 66.019L238.16 65.842C238.07 65.7279 238.01 65.5866 237.992 65.4527L238.213 65.3633C238.229 65.511 238.304 65.6765 238.384 65.7535C238.443 65.8108 238.5 65.8237 238.537 65.781C238.656 65.6439 238.182 65.3372 238.431 65.052C238.542 64.9245 238.706 64.9204 238.867 65.0314L239.015 64.8622L239.16 65.0029L239.013 65.1707C239.094 65.2675 239.151 65.3821 239.177 65.4885L238.957 65.5825C238.918 65.4559 238.848 65.3188 238.785 65.2574C238.737 65.2111 238.689 65.1987 238.657 65.2354C238.541 65.3688 239.01 65.6829 238.757 65.9727C238.633 66.1139 238.458 66.0974 238.304 65.9837Z" fill="#343C4B"/>
<path d="M239.474 66.0566C239.512 66.0131 239.502 65.9571 239.447 65.903C239.384 65.8429 239.272 65.8058 239.146 65.8003L239.206 65.5724C239.37 65.5917 239.518 65.649 239.629 65.7567C239.783 65.9067 239.822 66.1006 239.71 66.2286C239.634 66.3161 239.491 66.3455 239.327 66.3537L239.026 66.367L239.353 66.6839L239.206 66.8531L238.623 66.2886L238.743 66.1483L239.284 66.1162C239.367 66.1121 239.444 66.091 239.474 66.0566Z" fill="#343C4B"/>
<path d="M240.033 66.7036C240.213 66.8778 240.243 67.091 240.117 67.235C239.969 67.4051 239.749 67.396 239.56 67.2135C239.457 67.114 239.375 66.9599 239.345 66.8187L239.567 66.7325C239.569 66.8572 239.609 66.9594 239.679 67.0269C239.756 67.1016 239.832 67.1075 239.889 67.042C239.942 66.981 239.929 66.9044 239.852 66.8301C239.812 66.7912 239.685 66.6706 239.634 66.6279L240.035 66.168L240.549 66.6655L240.401 66.8356L240.07 66.5156L239.963 66.6385C239.981 66.6527 240.018 66.6889 240.033 66.7036Z" fill="#343C4B"/>
<path d="M242.101 65.174L240.239 63.4348L240.018 63.6833L241.873 65.439L242.101 65.174Z" fill="#DFDEEE"/>
<path d="M191.436 84.5984C190.864 82.8729 189.875 79.8494 187.699 80.0411C185.567 80.2286 183.937 83.0458 183.151 84.8638C181.795 88.0011 181.672 91.5074 181.557 94.8945C181.538 95.4631 182.376 95.4365 182.395 94.8702C182.48 92.363 182.561 89.8237 183.187 87.3889C183.776 85.0954 185.364 81.0576 187.952 81.1778C189.175 81.2342 189.153 81.6019 189.707 82.635C190.027 83.232 190.283 83.8766 190.514 84.5167C190.882 85.5356 191.14 86.6012 191.325 87.6732C191.736 90.0557 191.737 92.4905 191.633 94.9009C191.608 95.469 192.446 95.4424 192.471 94.8766C192.62 91.4345 192.527 87.8855 191.436 84.5984Z" fill="#343C4B"/>
<path d="M219.101 112.188C216.105 109.851 195.46 112.406 195.46 112.406C195.46 112.406 195.054 111.409 194.391 109.517C194.327 109.334 194.298 109.094 194.298 108.813C194.298 106.173 196.845 99.7218 196.845 99.7218C196.626 95.2471 195.806 90.9196 195.675 90.0915C195.396 88.3106 193.609 78.6669 194.783 76.1423C195.375 74.8823 196.731 72.7318 197.944 70.8977C199.157 69.0677 200.221 67.5496 200.221 67.5496L204.836 64.9007L209.915 65.0965L213.08 66.7971C213.08 66.7971 213.084 66.8017 213.097 66.8058L216.65 68.7202C216.65 68.7202 216.781 70.6836 216.954 73.8047C217.212 78.4042 217.563 85.5191 217.719 92.5757C217.779 94.9981 217.808 97.4154 217.808 99.7218C217.808 99.7264 219.562 104.397 219.879 106.066C220.196 107.731 219.101 112.188 219.101 112.188Z" fill="#0CC3BE"/>
<path d="M210.907 65.6343C210.907 65.6343 206.245 66.6275 205.551 66.3134C204.857 66.0034 203.905 65.4913 203.905 65.4913C204.061 65.3083 205.138 63.5907 205.114 63.0074C205.057 61.663 204.681 59.7735 204.681 59.7735L209.014 58.4516C209.014 58.4516 209.13 59.745 209.312 61.1174C209.494 62.5076 210.647 65.4096 210.907 65.6343Z" fill="#FFA07F"/>
<path d="M204.502 64.5352L200.695 67.2772C200.695 67.2772 201.65 71.3315 203.056 70.8014C204.461 70.2713 206.023 68.3501 206.023 68.3501C206.023 68.3501 207.523 71.928 209.104 71.729C210.686 71.53 213.08 66.7962 213.08 66.7962L210.517 64.8993C210.517 64.8993 205.486 68.0076 204.502 64.5352Z" fill="white"/>
<path d="M209.311 61.1156C208.096 61.9748 206.606 62.9896 206.128 63.1335C205.738 63.25 205.383 63.1491 205.115 63.0074C205.057 61.6617 204.68 59.7744 204.68 59.7744L209.014 58.4525C209.014 58.4525 209.131 59.7478 209.311 61.1156Z" fill="#FF7D6F"/>
<path d="M211.958 45.9894C209.754 43.0484 205.877 41.9961 202.713 43.7059C201.985 44.0989 201.397 44.5578 201.117 45.0819C200 47.1797 198.177 55.0181 199.553 58.9041C200.93 62.7901 203.405 62.3976 204.291 62.1757C205.176 61.9537 209.363 60.3677 210.378 59.0077C211.393 57.6482 213.771 50.481 213.407 48.5617C213.286 47.9216 212.693 46.971 211.958 45.9894Z" fill="#FFBF90"/>
<path d="M212.265 45.4336C210.061 42.4927 206.184 41.4408 203.02 43.1502C202.292 43.5431 201.704 44.0021 201.424 44.5262C200.306 46.6239 198.483 54.4624 199.86 58.3484C201.237 62.2344 203.712 61.8419 204.597 61.6199C205.483 61.398 209.67 59.8115 210.685 58.452C211.7 57.0925 214.077 49.9253 213.714 48.0059C213.593 47.3658 213 46.4153 212.265 45.4336Z" fill="#FFA07F"/>
<path d="M214.833 54.4324C214.772 54.5965 214.707 54.7611 214.637 54.9253C213.626 54.0986 212.016 54.2361 211.146 55.2329C210.739 53.59 211.051 51.7665 211.981 50.3831C210.537 49.5138 209.386 48.1148 208.772 46.4825C207.429 47.643 205.653 48.2263 203.923 48.0887C204.491 47.2831 204.863 46.3289 204.994 45.338C203.057 47.018 200.683 48.1258 198.208 48.5234C197.605 48.6242 196.991 48.6825 196.377 48.693C196.614 47.7443 196.946 46.7691 197.368 45.8204C198.696 42.8735 200.945 40.2287 204.068 39.8206C205.633 39.6193 207.278 39.8523 208.792 40.4355C210.21 40.9816 211.523 41.8399 212.554 42.9372C215.311 45.8777 216.226 50.5739 214.833 54.4324Z" fill="#343C4B"/>
<path d="M226.729 78.5482C226.719 78.5908 226.709 78.6275 226.699 78.6701C226.101 80.822 225.095 82.8147 224.079 84.7864C224.004 84.0921 223.792 83.4456 223.491 82.8413C224.456 80.4616 224.849 77.8218 224.511 75.2514C223.998 75.9933 223.485 76.7301 222.977 77.472C223.078 74.6842 221.931 71.9917 220.356 69.7496C218.787 67.5074 216.8 65.6366 214.934 63.665C214.159 62.8433 213.359 61.8735 213.244 60.7657C213.218 60.5961 213.214 60.4214 213.234 60.2462V60.2302C213.379 58.6826 214.919 57.5959 215.095 56.0539C215.16 55.4922 215.034 54.9567 214.833 54.4321C214.587 53.7856 214.22 53.1602 213.943 52.5293C213.435 51.3843 213.349 49.7309 214.406 49.1371C211.805 48.5062 209.667 46.1265 209.219 43.3597C208.007 43.8526 206.79 44.3506 205.577 44.8435C205.799 43.948 206.015 43.0521 206.236 42.1511C204.214 43.937 201.735 45.1296 199.139 45.6065C198.555 45.7179 197.962 45.7867 197.368 45.8183C198.022 44.3607 198.907 42.9828 200.004 41.9016C201.131 40.8044 202.489 40.0253 204.068 39.8186C205.21 39.67 206.393 39.7548 207.534 40.0359C207.66 40.0675 207.781 40.0996 207.901 40.1368C208.203 40.2216 208.5 40.322 208.792 40.4334C209.44 40.5715 210.064 40.7938 210.663 41.1015C210.783 41.1597 210.904 41.2285 211.025 41.2977C211.865 41.7746 212.65 42.4055 213.354 43.1529C214.435 44.3029 215.27 45.7184 215.713 47.2764C215.733 47.3402 215.748 47.4089 215.763 47.4727C215.899 47.9656 215.994 48.4635 216.06 48.9675C216.266 50.4196 216.256 51.9144 216.235 53.3876C216.22 54.9617 216.19 56.5941 215.577 58.0251C215.386 58.4754 215.139 58.889 214.847 59.2705C214.626 59.5621 214.385 59.8271 214.118 60.0761C214.586 60.956 215.833 62.3871 216.04 62.5989C216.256 62.8162 216.482 63.0175 216.714 63.2032C217.871 64.1253 219.214 64.687 220.507 65.334C223.198 66.6852 225.813 69.0017 226.784 72.049C227.448 74.133 227.303 76.4279 226.729 78.5482Z" fill="#414C5B"/>
<path d="M207.534 40.0372C205.331 41.5476 202.615 42.2102 200.004 41.903C201.131 40.8057 202.489 40.0267 204.069 39.8199C205.21 39.6718 206.393 39.7566 207.534 40.0372Z" fill="#495969"/>
<path d="M208.792 40.4348C209.441 40.5728 210.064 40.7952 210.663 41.1029C209.496 41.8397 208.148 42.2529 206.79 42.2794C207.162 41.5637 207.529 40.8539 207.902 40.1381C208.203 40.223 208.5 40.3234 208.792 40.4348Z" fill="#495969"/>
<path d="M215.763 47.4736C214.45 47.182 213.183 46.6735 212.202 45.7193C211.075 44.6115 210.502 42.7669 211.025 41.2991C211.865 41.776 212.65 42.4069 213.354 43.1543C214.435 44.3043 215.27 45.7197 215.713 47.2778C215.733 47.3411 215.748 47.4099 215.763 47.4736Z" fill="#495969"/>
<path d="M216.061 48.9679C216.267 50.4201 216.257 51.9148 216.236 53.3881C216.221 54.9622 216.191 56.5945 215.577 58.0256C215.386 58.4758 215.14 58.8894 214.848 59.2709C214.793 58.8839 214.778 58.4919 214.808 58.0944C214.904 56.9123 215.386 55.805 215.543 54.6279C215.714 53.3931 215.513 52.1317 215.593 50.8809C215.633 50.2293 215.779 49.5457 216.061 48.9679Z" fill="#495969"/>
<path d="M226.729 78.5481C226.86 75.8928 226.578 73.2109 225.849 72.2623C225.452 72.6282 225.049 72.9936 224.647 73.3595C224.576 71.2287 223.309 69.3419 221.83 67.8843C220.351 66.4321 218.621 65.2712 217.197 63.7553C217.031 63.5806 216.87 63.3949 216.714 63.2041C217.871 64.1262 219.214 64.6879 220.507 65.3349C223.198 66.6862 225.814 69.0026 226.785 72.05C227.448 74.133 227.303 76.4279 226.729 78.5481Z" fill="#495969"/>
<path d="M203.936 54.9448C204.126 54.9232 204.322 54.8687 204.502 54.9361C204.215 55.3304 203.776 55.5982 203.309 55.6637C203.273 55.6688 203.236 55.6729 203.201 55.6624C203.158 55.6495 203.124 55.617 203.092 55.5839C202.89 55.3772 202.728 55.1277 202.617 54.8549C202.595 54.7994 202.574 54.7416 202.575 54.6816C202.577 54.4826 202.69 54.5555 202.785 54.6275C202.896 54.7105 203.018 54.7783 203.144 54.8306C203.395 54.9338 203.669 54.975 203.936 54.9448Z" fill="#FF7D6F"/>
<path d="M203.296 55.5459C203.211 55.4152 203.11 55.2965 203.022 55.1676C202.913 55.0085 202.816 54.8402 202.739 54.6619C203.417 54.3918 203.561 53.7522 203.703 53.0213C203.767 52.6916 203.756 52.3472 203.672 52.0226C203.628 51.852 203.564 51.6874 203.483 51.5329C203.441 51.4545 203.395 51.3788 203.345 51.3064C203.295 51.2358 203.238 51.1886 203.171 51.1367C203.197 51.189 203.21 51.2454 203.231 51.2981C203.289 51.4357 203.352 51.5664 203.395 51.7103C203.439 51.8543 203.47 52.0024 203.49 52.1519C203.529 52.4509 203.521 52.7581 203.462 53.0538C203.404 53.3441 203.296 53.6238 203.133 53.8663C202.947 54.1428 202.674 54.3945 202.368 54.5041C202.365 54.505 202.65 55.0938 202.68 55.1438C202.757 55.2722 202.845 55.3932 202.944 55.5028C203.042 55.6101 203.154 55.7366 203.297 55.7674C203.342 55.777 203.389 55.7784 203.432 55.7609C203.412 55.7376 203.393 55.7123 203.378 55.6853C203.371 55.6734 203.364 55.6614 203.358 55.6495C203.339 55.6138 203.318 55.5794 203.296 55.5459Z" fill="#FC5B68"/>
<path d="M210.963 55.0938C211.187 54.9957 212.367 53.5334 213.095 54.5041C213.822 55.4753 213.952 57.0187 213.177 57.8367C212.47 58.5831 211.497 59.3768 210.379 59.0082L210.963 55.0938Z" fill="#FFA07F"/>
<path d="M213.011 55.6729C213.045 55.8802 213.003 56.0902 212.931 56.2878C212.625 57.1264 211.823 57.7285 211.057 58.286C211.302 57.8857 211.411 57.4226 211.393 56.9632C211.387 56.8032 211.366 56.6436 211.375 56.484C211.408 55.8416 212.808 54.4486 213.011 55.6729Z" fill="#FF7D6F"/>
<path d="M210.675 58.5047C210.675 58.5047 210.69 58.4965 210.718 58.4813C210.746 58.4653 210.79 58.4442 210.841 58.4107C210.943 58.3443 211.085 58.2356 211.223 58.0701C211.36 57.905 211.489 57.6812 211.56 57.4102C211.626 57.1402 211.635 56.821 211.522 56.5051C211.51 56.4652 211.494 56.4272 211.476 56.3891L211.463 56.3607C211.46 56.3533 211.461 56.3575 211.461 56.3575V56.3584L211.46 56.3579C211.46 56.3579 211.459 56.3593 211.462 56.3538L211.476 56.33L211.503 56.2827C211.522 56.252 211.54 56.2208 211.56 56.191C211.636 56.0704 211.718 55.9576 211.801 55.8531C211.884 55.749 211.97 55.6532 212.054 55.5665C212.138 55.4803 212.219 55.3996 212.299 55.3414C212.378 55.2822 212.464 55.2465 212.542 55.2401C212.621 55.2355 212.693 55.2602 212.741 55.291C212.79 55.3226 212.815 55.3602 212.825 55.3877C212.836 55.4152 212.834 55.4317 212.836 55.4317C212.834 55.4317 212.84 55.4166 212.836 55.3859C212.832 55.3556 212.815 55.3093 212.768 55.2644C212.72 55.2208 212.645 55.1772 212.542 55.1676C212.439 55.1598 212.326 55.191 212.223 55.2469C212.119 55.3033 212.025 55.3762 211.925 55.4565C211.826 55.5376 211.725 55.6293 211.627 55.733C211.529 55.8366 211.434 55.9508 211.346 56.0764C211.324 56.1076 211.303 56.1397 211.282 56.1722L211.25 56.2218L211.209 56.2919L211.18 56.341C211.186 56.3584 211.195 56.3758 211.202 56.3932L211.235 56.4684C211.25 56.5014 211.265 56.5345 211.275 56.5689C211.373 56.8426 211.381 57.1232 211.345 57.3717C211.303 57.6202 211.215 57.8376 211.113 58.0077C211.01 58.1783 210.897 58.3025 210.813 58.3837C210.772 58.425 210.735 58.4525 210.712 58.4736C210.688 58.4942 210.675 58.5047 210.675 58.5047Z" fill="#CF4A57"/>
<path d="M200.272 48.9766C200.272 48.9766 201.397 48.1586 202.069 48.2641C202.741 48.3695 202.912 49.0339 202.639 49.1486C202.367 49.2637 200.272 48.9766 200.272 48.9766Z" fill="#343C4B"/>
<path d="M209.765 50.6168C209.765 50.6168 208.279 49.0867 207.242 48.818C206.204 48.5497 205.779 49.1733 206.16 49.4535C206.541 49.7341 209.765 50.6168 209.765 50.6168Z" fill="#343C4B"/>
<path d="M206.763 55.5078C206.789 55.8485 207.502 56.0672 208.356 55.9962C209.211 55.9251 209.883 55.5913 209.857 55.2501C209.832 54.9095 209.118 54.6907 208.264 54.7618C207.41 54.8333 206.738 55.1671 206.763 55.5078Z" fill="#FF7D6F"/>
<path d="M198.581 53.3133C198.465 53.5412 198.899 54.0259 199.551 54.3955C200.204 54.765 200.827 54.8792 200.943 54.6513C201.059 54.423 200.625 53.9388 199.973 53.5692C199.32 53.2001 198.698 53.0855 198.581 53.3133Z" fill="#FF7D6F"/>
<path d="M209.05 51.5613C208.883 51.8158 208.488 51.9483 208.217 52.0121C208.127 51.8309 207.995 51.7039 207.831 51.6627C207.412 51.5581 206.943 52.0478 206.783 52.7567C206.624 53.4656 206.834 54.1249 207.253 54.2299C207.672 54.3345 208.141 53.8448 208.3 53.1359C208.349 52.9163 208.363 52.7017 208.347 52.5068C208.734 52.2904 209.05 51.5613 209.05 51.5613Z" fill="#343C4B"/>
<path d="M202.211 57.2296L207.282 56.9513C207.282 56.9513 206.763 59.6657 204.502 59.6506C201.725 59.6322 202.211 57.2296 202.211 57.2296Z" fill="white"/>
<path d="M200.599 50.2628C200.639 50.5076 200.886 50.7456 201.064 50.8878C201.188 50.7873 201.325 50.741 201.458 50.7695C201.798 50.8419 201.984 51.3664 201.874 51.9414C201.764 52.5164 201.399 52.9241 201.059 52.8516C200.719 52.7792 200.533 52.2546 200.643 51.6796C200.677 51.5017 200.736 51.3399 200.81 51.2032C200.597 50.9079 200.599 50.2628 200.599 50.2628Z" fill="#343C4B"/>
<path d="M201.231 51.8814C201.231 51.8814 200.863 51.9309 200.567 51.7314C200.271 51.532 200.159 51.1592 200.159 51.1592C200.159 51.1592 200.527 51.1097 200.823 51.3087C201.119 51.5081 201.231 51.8814 201.231 51.8814Z" fill="white"/>
<path d="M207.539 53.041C207.539 53.041 207.93 53.2987 208.362 53.2359C208.794 53.173 209.104 52.8136 209.104 52.8136C209.104 52.8136 208.714 52.5559 208.282 52.6187C207.849 52.6815 207.539 53.041 207.539 53.041Z" fill="white"/>
<path d="M184.596 80.799L180.107 85.5851L181.595 87.5329C181.595 87.5329 182.536 90.9833 183.962 93.5437C185.389 96.1036 190.882 96.0986 192.73 95.7648L197.272 100.5L201.445 69.8908L200.222 67.5505C200.222 67.5505 196.533 69.8908 196.374 70.5584C196.216 71.226 192.255 84.3049 192.413 84.6387C192.571 84.9725 189.561 81.8536 188.452 81.5207C187.342 81.1883 185.494 81.5207 185.494 81.5207L184.596 80.799Z" fill="#0CC3BE"/>
<path d="M197.34 73.7969C197.464 73.4824 196.977 73.3448 196.855 73.6562C194.882 78.6554 192.788 84.9244 196.526 89.6192C196.449 91.8733 196.479 94.1228 196.62 96.3737C196.642 96.7121 197.145 96.7148 197.124 96.3737C196.98 94.0769 196.949 91.782 197.033 89.4816C197.037 89.3528 196.968 89.273 196.88 89.2418C193.283 84.7125 195.452 78.5812 197.34 73.7969Z" fill="#0797A7"/>
<path d="M185.852 82.6001C185.835 82.5043 185.697 82.4639 185.637 82.5405C185.449 82.7803 185.311 83.0582 185.186 83.3475C185.165 83.3356 185.144 83.3237 185.124 83.3113C184.9 83.1742 184.675 83.0513 184.442 82.9344C184.25 82.8381 184.115 83.0967 184.278 83.2287C184.484 83.3952 184.691 83.5506 184.909 83.6983C184.943 83.7212 184.977 83.745 185.01 83.7689C184.939 83.9436 184.867 84.1178 184.787 84.2875C184.711 84.2416 184.635 84.1981 184.57 84.1568C184.323 84.0009 184.07 83.8711 183.806 83.751C183.619 83.6657 183.462 83.9248 183.643 84.0454C183.883 84.2063 184.121 84.3723 184.358 84.5387C184.427 84.5869 184.495 84.6424 184.563 84.6969C184.542 84.7309 184.523 84.7662 184.5 84.7992C184.392 84.9578 184.272 85.1078 184.149 85.254C184.046 85.1568 183.899 85.0908 183.792 85.0243C183.574 84.8881 183.372 84.7313 183.181 84.5553C182.991 84.3796 182.714 84.6635 182.901 84.8505C183.1 85.0509 183.315 85.2343 183.544 85.3943C183.631 85.4549 183.737 85.5347 183.848 85.586C183.629 85.8098 183.395 86.0184 183.149 86.2105C183.091 86.0973 182.968 86.0377 182.855 85.9542C182.662 85.8116 182.468 85.669 182.275 85.5259C182.106 85.4012 181.955 85.6878 182.115 85.8144C182.293 85.9556 182.471 86.0963 182.65 86.2371C182.729 86.2999 182.802 86.3728 182.883 86.4187C182.662 86.575 182.435 86.7195 182.201 86.8474C182.112 86.8955 182.173 87.0547 182.269 87.0189C183.274 86.647 184.103 86.0597 184.787 85.1921C185.089 84.8088 185.335 84.3824 185.583 83.9596C185.794 83.5992 185.929 83.0348 185.852 82.6001Z" fill="#0797A7"/>
<path d="M193.106 85.9996C192.988 85.7433 192.841 85.4173 192.528 85.4159C192.182 85.4136 192.047 85.8107 191.917 86.0821C191.673 86.592 191.437 87.1069 191.197 87.6191C191.085 87.8585 191.42 88.0694 191.539 87.8296C191.69 87.5265 191.841 87.2234 191.992 86.9199C192.089 86.7245 192.338 86.0014 192.531 85.9936C192.694 85.9868 192.7 86.1477 192.763 86.2999C192.823 86.443 192.88 86.587 192.943 86.7287C193.053 86.9758 193.136 87.2028 193.354 87.3532C193.436 87.4091 193.518 87.3321 193.528 87.2482C193.579 86.8382 193.272 86.3605 193.106 85.9996Z" fill="#0797A7"/>
<path d="M196.959 94.7234L198.394 115.48L198.654 119.29C194.983 120.16 191.245 120.586 187.509 120.554C183.771 120.527 180.04 120.049 176.379 119.122L176.47 118.011L178.409 94.5809L194.68 94.706L196.959 94.7234Z" fill="#FCC700"/>
<path d="M196.959 94.7234L198.394 115.48L198.654 119.29C194.983 120.16 191.245 120.586 187.509 120.554C183.771 120.527 180.04 120.049 176.379 119.122L176.47 118.011C181.807 118.995 187.664 117.54 191.168 113.254C193.432 110.486 194.529 106.83 194.859 103.191C195.114 100.371 194.944 97.5356 194.68 94.7056L196.959 94.7234Z" fill="#FDA859"/>
<path d="M191.435 84.5997C191.321 84.2526 191.19 83.856 191.033 83.442C190.421 81.7904 189.44 79.8889 187.7 80.0406C186.812 80.1163 186.009 80.6551 185.321 81.3809L185.494 81.5235C185.494 81.5235 186.119 81.4121 186.859 81.3809C187.201 81.2342 187.565 81.1581 187.953 81.1759C188.934 81.2204 189.115 81.4698 189.432 82.1022C189.513 82.258 189.597 82.4314 189.707 82.6363C190.028 83.2329 190.286 83.8785 190.514 84.5154C190.882 85.5351 191.14 86.5989 191.326 87.6723C191.736 90.0543 191.74 92.4895 191.634 94.9027C191.609 95.4681 192.45 95.4415 192.471 94.8761C192.622 91.434 192.529 87.8855 191.435 84.5997Z" fill="#343C4B"/>
<path d="M182.512 58.5047L187.383 60.8996L181.642 69.4401L182.512 58.5047Z" fill="white"/>
<path d="M189.606 65.627L190.451 68.8004L184.696 69.3713L189.606 65.627Z" fill="white"/>
<path d="M176.294 61.0949L179.218 59.923L180.273 65.9113L176.294 61.0949Z" fill="white"/>
<path d="M205.857 72.6135C205.842 73.0807 205.47 73.4457 205.027 73.4292C204.583 73.4127 204.237 73.0207 204.252 72.5539C204.268 72.0866 204.64 71.7217 205.083 71.7377C205.526 71.7542 205.873 72.1462 205.857 72.6135Z" fill="white"/>
<path d="M205.732 76.3757C205.716 76.8429 205.344 77.2079 204.901 77.1914C204.457 77.1749 204.111 76.7828 204.127 76.3161C204.142 75.8488 204.514 75.4838 204.957 75.4999C205.4 75.5164 205.747 75.9084 205.732 76.3757Z" fill="white"/>
<path d="M205.857 80.1672C205.842 80.6344 205.47 80.9994 205.027 80.9834C204.583 80.9669 204.237 80.5748 204.252 80.108C204.268 79.6408 204.64 79.2758 205.083 79.2919C205.526 79.3079 205.873 79.7 205.857 80.1672Z" fill="white"/>
<path d="M216.202 107.588C214.638 107.249 213.044 107.021 211.456 106.86C207.997 106.51 204.519 106.57 201.068 106.991C200.751 107.029 200.747 107.56 201.068 107.521C203.812 107.187 206.573 107.075 209.333 107.225C210.806 107.305 212.277 107.455 213.737 107.679C214.439 107.787 215.139 107.911 215.836 108.052C216.056 108.097 216.592 108.108 216.757 108.282C217.076 108.321 217.065 108.438 216.725 108.632C216.559 108.939 216.313 109.014 215.986 108.86C214.66 108.976 213.208 108.69 211.873 108.664C210.5 108.638 209.128 108.652 207.756 108.704C204.988 108.81 202.232 109.088 199.491 109.501C199.172 109.549 199.308 110.06 199.625 110.012C203.281 109.46 206.968 109.173 210.662 109.181C212.44 109.184 214.212 109.277 215.986 109.389C216.533 109.424 217.593 109.58 217.705 108.742C217.818 107.906 216.745 107.705 216.202 107.588Z" fill="#0797A7"/>
<path d="M216.651 68.7202C216.651 68.7202 219.007 70.203 219.51 71.132C220.013 72.061 221.605 78.9801 221.605 78.9801L224.875 83.5447C224.875 83.5447 227.306 76.886 228.983 75.8429C230.659 74.7997 232.755 74.426 232.755 74.426L234.348 73.3155L238.125 76.2111L237.534 78.5202C237.534 78.5202 235.962 87.0235 234.956 88.9548C234.457 89.9117 228.605 98.2348 224.707 98.2302C223.425 98.2284 217.661 90.2382 217.661 90.2382L214.647 73.7525L216.651 68.7202Z" fill="#0CC3BE"/>
<path d="M217.224 70.0027C216.432 70.6661 215.881 71.563 215.618 72.5915C215.534 72.9212 216.019 73.0619 216.103 72.7322C216.346 71.7845 216.852 70.9876 217.58 70.3773C217.833 70.1654 217.475 69.7926 217.224 70.0027Z" fill="#0797A7"/>
<path d="M215.577 76.4266C215.537 76.0928 215.034 76.0886 215.074 76.4266C215.58 80.6055 216.086 84.785 216.592 88.964C216.632 89.2978 217.136 89.3019 217.095 88.964C216.589 84.785 216.084 80.6055 215.577 76.4266Z" fill="#0797A7"/>
<path d="M226.31 86.9712C226.007 86.0134 225.703 85.056 225.4 84.0981C225.327 83.8688 225.068 83.8514 224.94 84.0348C224.38 84.8382 223.953 85.7112 223.644 86.653C223.538 86.9763 224.024 87.1147 224.129 86.7938C224.366 86.0688 224.687 85.3953 225.08 84.7588C225.329 85.5434 225.578 86.3274 225.826 87.112C225.927 87.4339 226.413 87.2958 226.31 86.9712Z" fill="#0797A7"/>
<path d="M236.841 77.7581C236.562 77.4926 236.274 77.2395 235.979 76.997C236.243 76.7397 236.507 76.483 236.771 76.2257C237.009 75.9937 236.653 75.6196 236.415 75.8511C236.143 76.1161 235.871 76.3816 235.598 76.6467C235.586 76.6586 235.582 76.6719 235.573 76.6843C235.396 76.5472 235.222 76.4059 235.04 76.2762C235.11 76.2899 235.185 76.2762 235.251 76.2134C235.461 76.0153 235.672 75.8176 235.882 75.6196C236.124 75.3917 235.767 75.018 235.527 75.245C235.317 75.443 235.106 75.6407 234.896 75.8387C234.796 75.9327 234.801 76.0497 234.854 76.1404C234.617 75.9758 234.376 75.8176 234.131 75.6659C234.424 75.4114 234.718 75.1565 235.011 74.902C235.261 74.6851 234.904 74.3119 234.655 74.5274C234.323 74.8158 233.991 75.1037 233.659 75.3921C233.523 75.3146 233.391 75.2307 233.254 75.1574C232.966 75.0033 232.711 75.4605 233 75.615C234.266 76.2931 235.43 77.1304 236.486 78.1332C236.726 78.3606 237.082 77.9869 236.841 77.7581Z" fill="#0797A7"/>
<path d="M215.633 61.3944C214.903 61.7107 214.156 61.9574 213.394 62.1468C214.092 61.6099 214.667 60.9124 215.082 60.0738C215.195 59.8445 214.963 59.5717 214.738 59.7111C213.787 60.3008 212.788 60.7382 211.72 61.0321C211.407 61.1183 211.54 61.6296 211.854 61.5434C212.649 61.3242 213.408 61.0243 214.139 60.6479C213.544 61.4677 212.756 62.0858 211.805 62.4526C211.56 62.5471 211.57 63.0125 211.872 62.973C211.895 62.9703 211.916 62.9652 211.939 62.962V62.9634C211.941 62.9625 211.943 62.9616 211.944 62.9611C213.266 62.7823 214.532 62.4398 215.767 61.9051C216.062 61.7777 215.933 61.2646 215.633 61.3944Z" fill="white"/>
<path d="M185.455 43.6326H157.646C156.447 43.6326 155.476 42.6091 155.476 41.3464V21.3282C155.476 20.0654 156.448 19.042 157.646 19.042H185.455C186.654 19.042 187.625 20.0654 187.625 21.3282V41.3464C187.625 42.6087 186.654 43.6326 185.455 43.6326Z" fill="white"/>
<path d="M162.704 32.103V33.733H161.36V32.092C160.409 31.9535 159.489 31.5381 158.812 30.9526L159.53 29.4293C160.258 30.0896 161.36 30.5582 162.098 30.5582C162.644 30.5582 162.987 30.345 162.987 29.9511C162.987 28.6833 159.257 29.4504 159.257 26.8084C159.257 25.6264 160.065 24.8056 161.359 24.5823V23.016H162.704V24.5718C163.533 24.6676 164.321 24.9656 164.918 25.3705L164.22 26.9153C163.472 26.4673 162.522 26.1161 161.936 26.1161C161.491 26.1161 161.198 26.2866 161.198 26.6273C161.198 27.863 164.928 27.1601 164.928 29.8443C164.928 31.1548 163.978 31.9219 162.704 32.103Z" fill="#0CC3BE"/>
<path d="M184.289 23.016H167.156V24.7336H184.289V23.016Z" fill="#C1BED7"/>
<path d="M184.289 26.028H167.156V27.7457H184.289V26.028Z" fill="#C1BED7"/>
<path d="M184.289 29.0401H167.156V30.7577H184.289V29.0401Z" fill="#C1BED7"/>
<path d="M176.126 32.0521H167.156V33.7697H176.126V32.0521Z" fill="#C1BED7"/>
<path d="M161.776 38.0964C161.776 38.9588 161.112 39.6576 160.294 39.6576C159.476 39.6576 158.812 38.9584 158.812 38.0964C158.812 37.2339 159.476 36.5351 160.294 36.5351C161.112 36.5351 161.776 37.2339 161.776 38.0964Z" fill="#FD7658"/>
<path d="M166.809 38.0964C166.809 38.9588 166.145 39.6576 165.327 39.6576C164.509 39.6576 163.845 38.9584 163.845 38.0964C163.845 37.2339 164.509 36.5351 165.327 36.5351C166.146 36.5351 166.809 37.2339 166.809 38.0964Z" fill="#FD7658"/>
<path d="M171.842 38.0964C171.842 38.9588 171.179 39.6576 170.361 39.6576C169.542 39.6576 168.879 38.9584 168.879 38.0964C168.879 37.2339 169.542 36.5351 170.361 36.5351C171.179 36.5351 171.842 37.2339 171.842 38.0964Z" fill="#FD7658"/>
<path d="M187.625 38.0964L190.684 48.8643L179.457 43.5271L187.625 38.0964Z" fill="white"/>
<path d="M234.581 124.572C240.767 124.572 245.782 119.288 245.782 112.77C245.782 106.252 240.767 100.968 234.581 100.968C228.395 100.968 223.38 106.252 223.38 112.77C223.38 119.288 228.395 124.572 234.581 124.572Z" fill="#C1BED7"/>
<path d="M231.413 112.506C229.804 112.506 228.496 111.127 228.496 109.432C228.496 107.738 229.804 106.358 231.413 106.358C233.021 106.358 234.33 107.738 234.33 109.432C234.33 111.127 233.021 112.506 231.413 112.506ZM231.413 108.033C230.681 108.033 230.085 108.661 230.085 109.432C230.085 110.203 230.68 110.831 231.413 110.831C232.145 110.831 232.74 110.204 232.74 109.432C232.74 108.66 232.145 108.033 231.413 108.033Z" fill="white"/>
<path d="M230.037 118.395C229.834 118.395 229.631 118.314 229.476 118.15C229.165 117.823 229.165 117.293 229.476 116.966L238.563 107.391C238.873 107.064 239.377 107.064 239.687 107.391C239.997 107.718 239.997 108.248 239.687 108.575L230.599 118.15C230.444 118.314 230.241 118.395 230.037 118.395Z" fill="white"/>
<path d="M237.749 119.182C236.141 119.182 234.832 117.804 234.832 116.109C234.832 114.414 236.141 113.035 237.749 113.035C239.357 113.035 240.666 114.414 240.666 116.109C240.667 117.804 239.358 119.182 237.749 119.182ZM237.749 114.709C237.017 114.709 236.421 115.337 236.421 116.108C236.421 116.88 237.017 117.507 237.749 117.507C238.481 117.507 239.077 116.88 239.077 116.108C239.077 115.337 238.481 114.709 237.749 114.709Z" fill="white"/>
<path d="M265.117 144.015C263.658 148.212 261.425 152.124 258.648 155.728C258.261 156.232 257.858 156.73 257.446 157.223C256.495 158.373 255.489 159.486 254.433 160.562C254.106 160.896 253.779 161.229 253.442 161.553C252.858 162.125 252.265 162.687 251.656 163.233C251.309 163.551 250.962 163.858 250.61 164.16C249.986 164.706 249.357 165.236 248.713 165.756C247.727 166.556 246.716 167.33 245.69 168.077C245.449 168.299 245.212 168.517 244.971 168.729C244.87 168.735 244.769 168.761 244.674 168.808C244.619 168.851 244.558 168.893 244.498 168.93C244.493 168.93 244.493 168.93 244.493 168.935C243.357 169.736 242.199 170.504 241.028 171.246C239.408 171.13 237.793 170.934 236.189 170.663C234.685 170.409 233.13 170.064 231.903 169.121C230.665 168.182 229.83 166.486 230.273 164.949C230.671 163.593 231.908 162.723 233.11 162.071C236.375 160.306 240.017 159.321 243.683 159.204C238.019 156.671 233.009 152.536 229.302 147.353C228.14 145.721 227.079 143.94 226.636 141.952C226.188 139.959 226.43 137.717 227.652 136.128C229.951 133.128 234.463 133.631 237.778 135.248C242.702 137.654 246.792 141.915 249.126 147.078C247.074 140.569 246.223 133.642 246.636 126.794C246.766 124.648 247.068 122.384 248.371 120.73C250.535 117.974 254.82 118.038 257.617 120.057C260.424 122.061 261.998 125.49 263.064 128.888C264.579 133.748 265.268 138.895 265.117 144.015Z" fill="#0CC3BE"/>
<path d="M243.326 165.252C245.122 165.416 246.918 165.586 248.714 165.756C247.728 166.556 246.717 167.33 245.691 168.077C246.083 167.727 246.475 167.372 246.868 167.017L239.534 166.328C238.659 166.253 238.956 164.849 239.821 164.928C240.379 164.976 240.937 165.024 241.496 165.082C241.058 164.462 240.615 163.847 240.178 163.227C239.645 162.485 240.786 161.7 241.32 162.432C241.984 163.376 242.658 164.309 243.326 165.252Z" fill="#0797A7"/>
<path d="M250.379 161.881C250.801 162.332 251.229 162.782 251.656 163.233C251.31 163.551 250.962 163.859 250.61 164.161C250.233 163.758 249.856 163.361 249.478 162.958C248.855 162.305 249.765 161.224 250.379 161.881Z" fill="#0797A7"/>
<path d="M253.317 159.374C253.689 159.772 254.061 160.164 254.433 160.561C254.106 160.895 253.779 161.229 253.442 161.552C251.345 159.321 249.247 157.095 247.149 154.863C245.313 155.065 243.482 155.266 241.652 155.473C240.776 155.574 240.711 154.132 241.586 154.036L245.917 153.554C243.181 150.638 240.444 147.729 237.703 144.819C235.927 144.899 234.157 144.973 232.381 145.047C231.506 145.094 231.435 143.647 232.316 143.616C233.679 143.552 235.037 143.494 236.395 143.436C236.239 143.266 236.083 143.102 235.927 142.932C235.309 142.286 236.214 141.199 236.838 141.856C238.347 143.468 239.861 145.073 241.375 146.68C241.209 145.46 241.043 144.236 240.877 143.012C240.756 142.1 242.119 142.032 242.245 142.943C242.481 144.687 242.713 146.431 242.944 148.169C242.96 148.238 242.95 148.291 242.934 148.349C245.932 151.529 248.93 154.715 251.928 157.9L251.692 152.048C251.652 151.121 253.015 151.047 253.055 151.98C253.156 154.375 253.247 156.776 253.347 159.172C253.352 159.258 253.337 159.316 253.317 159.374Z" fill="#0797A7"/>
<path d="M261.47 150.963C260.6 152.346 259.73 153.74 258.86 155.124C258.789 155.24 258.699 155.314 258.608 155.373L258.649 155.728C258.261 156.231 257.859 156.729 257.446 157.222C257.064 153.899 256.682 150.576 256.3 147.253C256.219 147.232 256.133 147.195 256.058 147.136L251.179 143.617C250.455 143.098 251.37 142.022 252.085 142.541C253.423 143.501 254.756 144.465 256.089 145.43L254.695 133.325C253.181 132.588 251.657 131.851 250.133 131.12C249.333 130.733 249.952 129.45 250.757 129.832C251.999 130.441 253.252 131.045 254.505 131.65L254.233 129.275C254.127 128.353 255.495 128.284 255.601 129.201C255.988 132.598 256.386 135.996 256.773 139.383L260.203 134.66C260.742 133.918 261.758 134.878 261.225 135.609C259.826 137.538 258.428 139.467 257.025 141.397C257.019 141.402 257.009 141.413 257.005 141.424C257.462 145.388 257.915 149.352 258.373 153.317C259.002 152.321 259.625 151.314 260.254 150.312C260.731 149.543 261.953 150.189 261.47 150.963Z" fill="#0797A7"/>
<path d="M118.228 11.7074C114.668 11.7074 114.662 17.5376 118.228 17.5376C121.789 17.5376 121.795 11.7074 118.228 11.7074Z" fill="white"/>
<path d="M160.018 51.9887C156.458 51.9887 156.452 57.8188 160.018 57.8188C163.579 57.8183 163.584 51.9887 160.018 51.9887Z" fill="white"/>
<path d="M92.4886 51.7232C88.9286 51.7232 88.9225 57.5533 92.4886 57.5533C96.0491 57.5538 96.0552 51.7232 92.4886 51.7232Z" fill="white"/>
<path d="M107.076 46.2906C105.782 46.2906 105.779 48.4108 107.076 48.4108C108.371 48.4108 108.373 46.2906 107.076 46.2906Z" fill="white"/>
<path d="M145.961 17.7897C144.666 17.7897 144.664 19.9099 145.961 19.9099C147.256 19.9095 147.258 17.7897 145.961 17.7897Z" fill="white"/>
<path d="M173.976 51.5907C172.682 51.5907 172.68 53.7109 173.976 53.7109C175.271 53.7109 175.273 51.5907 173.976 51.5907Z" fill="white"/>
<path d="M194.6 28.2702C193.305 28.2702 193.303 30.3904 194.6 30.3904C195.895 30.3904 195.897 28.2702 194.6 28.2702Z" fill="white"/>
<path d="M147.403 77.2152L133.974 104.629C132.857 106.911 130.206 107.802 128.053 106.631L105.04 94.115C102.886 92.9439 102.04 90.1515 103.158 87.8694L120.699 52.0607C121.811 49.7919 124.461 48.9005 126.614 50.0716L141.648 58.248L147.403 77.2152Z" fill="url(#paint3_linear_2_56)"/>
<path d="M150.288 76.2019L136.859 103.616C135.741 105.898 133.091 106.789 130.938 105.618L107.924 93.1017C105.771 91.9306 104.925 89.1382 106.043 86.8561L123.584 51.0473C124.695 48.7785 127.346 47.8872 129.499 49.0582L144.532 57.2342L150.288 76.2019Z" fill="white"/>
<path d="M150.288 76.2019L138.407 69.7404L144.533 57.2346L150.288 76.2019Z" fill="#DFDEEE"/>
<path d="M134.143 67.9237L123.192 61.9673L119.773 68.9464L130.724 74.9028L134.143 67.9237Z" fill="#456997"/>
<path d="M141.53 83.9516L118.546 71.4501L117.361 73.8691L140.345 86.3706L141.53 83.9516Z" fill="#DFDEEE"/>
<path d="M139.282 88.5394L116.298 76.038L115.113 78.457L138.097 90.9584L139.282 88.5394Z" fill="#DFDEEE"/>
<path d="M137.035 93.1272L114.051 80.6257L112.866 83.0447L135.85 95.5462L137.035 93.1272Z" fill="#DFDEEE"/>
<path d="M134.787 97.7146L111.803 85.2131L110.618 87.6321L133.602 100.134L134.787 97.7146Z" fill="#DFDEEE"/>
<defs>
<linearGradient id="paint0_linear_2_56" x1="134.766" y1="68.6562" x2="134.766" y2="216.531" gradientUnits="userSpaceOnUse">
<stop stop-color="#DFDEEE"/>
<stop offset="1" stop-color="#C1BED7"/>
</linearGradient>
<linearGradient id="paint1_linear_2_56" x1="65.7794" y1="68.6557" x2="65.7794" y2="216.531" gradientUnits="userSpaceOnUse">
<stop stop-color="#DFDEEE"/>
<stop offset="1" stop-color="#C1BED7"/>
</linearGradient>
<linearGradient id="paint2_linear_2_56" x1="121.023" y1="68.6557" x2="121.023" y2="216.531" gradientUnits="userSpaceOnUse">
<stop stop-color="#DFDEEE"/>
<stop offset="1" stop-color="#C1BED7"/>
</linearGradient>
<linearGradient id="paint3_linear_2_56" x1="125.034" y1="72.2194" x2="125.034" y2="105.298" gradientUnits="userSpaceOnUse">
<stop stop-color="#E1E0F0" stop-opacity="0"/>
<stop offset="1" stop-color="#C3C0D9"/>
</linearGradient>
</defs>
</svg>
