<svg width="40" height="28" viewBox="0 0 40 28" fill="none" xmlns="http://www.w3.org/2000/svg">
<path d="M38.9117 4.37248C38.6872 3.52685 38.2444 2.75506 37.6277 2.13441C37.011 1.51377 36.242 1.06605 35.3979 0.836106C32.2987 0 19.8712 0 19.8712 0C19.8712 0 7.44366 0 4.34447 0.836106C3.50029 1.06605 2.73135 1.51377 2.11466 2.13441C1.49797 2.75506 1.05518 3.52685 0.830641 4.37248C4.07155e-07 7.49148 0 14 0 14C0 14 4.07155e-07 20.5085 0.830641 23.6282C1.05518 24.4738 1.49797 25.2456 2.11466 25.8662C2.73135 26.4869 3.50029 26.9346 4.34447 27.1646C7.44366 28 19.8712 28 19.8712 28C19.8712 28 32.2987 28 35.3979 27.1646C36.242 26.9346 37.011 26.4869 37.6277 25.8662C38.2444 25.2456 38.6872 24.4738 38.9117 23.6282C39.7423 20.5085 39.7423 14 39.7423 14C39.7423 14 39.7423 7.49148 38.9117 4.37248Z" fill="#EA5A47"/>
</svg>
