<svg width="22" height="11" viewBox="0 0 22 11" fill="none" xmlns="http://www.w3.org/2000/svg">
<path d="M1.60854 3.31122L1.92075 2.77439L5.88694 2.77184L5.63157 3.30862L1.60854 3.31122ZM5.20579 4.63174L5.33732 4.09496L0.312168 4.09959L0 4.63637L5.20579 4.63174ZM5.06138 5.957L5.09936 5.42022L2.81355 5.42271L2.5917 5.95949L5.06138 5.957ZM19.6407 10.1609C17.4416 11.7934 14.437 11.102 13.6338 7.56234C13.1591 8.82124 12.3839 9.85304 11.4602 10.4414C9.27171 11.8355 6.30034 10.6198 5.91817 6.79945C5.63832 3.13769 7.83755 0.875009 9.13761 0.303724C11.2038 -0.563627 13.2415 0.45555 13.9461 2.99206L11.7268 3.77597C11.491 2.89171 10.2094 2.25493 9.22432 3.2147C7.67499 4.5029 7.70361 7.74468 9.5755 8.22604C10.5474 8.39396 11.2002 7.74682 11.6896 6.75145L9.27958 6.75839L10.0539 4.50823H13.6657C15.2301 -1.43897 21.331 -1.17857 21.951 4.16543C22.1714 6.06481 21.6902 8.63936 19.6407 10.1609ZM17.6364 2.80282C15.9666 3.28702 15.5504 5.27477 15.8082 6.54832C16.0824 7.90363 17.1449 8.79235 18.4929 7.94242C20.6534 6.58034 20.0871 2.09222 17.6364 2.80282Z" fill="black"/>
</svg>
