<svg width="11" height="9" viewBox="0 0 11 9" fill="none" xmlns="http://www.w3.org/2000/svg">
<path fill-rule="evenodd" clip-rule="evenodd" d="M6.3231 0.208872C6.41391 0.133127 6.51875 0.0760193 6.63164 0.0408131C6.74452 0.00560683 6.86324 -0.0070074 6.98101 0.0036909C7.09877 0.0143892 7.21328 0.0481904 7.31797 0.103163C7.42267 0.158135 7.5155 0.233201 7.59117 0.32407L10.5908 3.92398C10.7368 4.10803 10.8051 4.3419 10.781 4.57561C10.7569 4.80932 10.6424 5.02435 10.4619 5.17476C10.2814 5.32517 10.0493 5.39903 9.81507 5.38057C9.58085 5.36211 9.36313 5.25279 9.20843 5.07596L6.2079 1.47604C6.05521 1.2927 5.98157 1.05623 6.00317 0.818609C6.02477 0.580989 6.13985 0.361673 6.3231 0.208872Z" fill="black"/>
<path fill-rule="evenodd" clip-rule="evenodd" d="M6.3231 8.7911C6.13985 8.6383 6.02477 8.41898 6.00317 8.18136C5.98157 7.94374 6.05521 7.70727 6.2079 7.52393L9.20843 3.92401C9.36313 3.74718 9.58085 3.63786 9.81507 3.6194C10.0493 3.60094 10.2814 3.6748 10.4619 3.82521C10.6424 3.97562 10.7569 4.19065 10.781 4.42436C10.8051 4.65808 10.7368 4.89194 10.5908 5.07599L7.59117 8.6759C7.5155 8.76677 7.42267 8.84184 7.31797 8.89681C7.21328 8.95178 7.09877 8.98558 6.98101 8.99628C6.86324 9.00698 6.74452 8.99436 6.63164 8.95916C6.51875 8.92395 6.41391 8.86684 6.3231 8.7911Z" fill="black"/>
<path fill-rule="evenodd" clip-rule="evenodd" d="M8.99978 4.49993C8.99978 4.73862 8.90497 4.96753 8.73619 5.13631C8.56741 5.30509 8.33849 5.39991 8.09981 5.39991H0.899978C0.661289 5.39991 0.432376 5.30509 0.263598 5.13631C0.0948191 4.96753 0 4.73862 0 4.49993C0 4.26124 0.0948191 4.03233 0.263598 3.86355C0.432376 3.69477 0.661289 3.59995 0.899978 3.59995H8.09981C8.33849 3.59995 8.56741 3.69477 8.73619 3.86355C8.90497 4.03233 8.99978 4.26124 8.99978 4.49993Z" fill="black"/>
</svg>
